<svg width="144" height="228" viewBox="0 0 144 228" fill="none" xmlns="http://www.w3.org/2000/svg">
<path d="M1.25409 4.072H11.6461V13H8.41809V6.328H4.49409V13H1.25409V4.072ZM19.7003 9.628C19.7003 9.476 19.6763 9.316 19.6283 9.148C19.5803 8.972 19.4963 8.812 19.3763 8.668C19.2643 8.524 19.1123 8.408 18.9203 8.32C18.7283 8.224 18.4843 8.176 18.1883 8.176H18.1403C17.8443 8.176 17.5963 8.224 17.3963 8.32C17.2043 8.408 17.0483 8.524 16.9283 8.668C16.8083 8.812 16.7243 8.968 16.6763 9.136C16.6283 9.304 16.6043 9.464 16.6043 9.616V9.688C16.6043 9.848 16.6283 10.016 16.6763 10.192C16.7243 10.36 16.8083 10.512 16.9283 10.648C17.0483 10.784 17.2043 10.896 17.3963 10.984C17.5963 11.072 17.8443 11.116 18.1403 11.116H18.1883C18.4843 11.116 18.7283 11.072 18.9203 10.984C19.1123 10.888 19.2643 10.772 19.3763 10.636C19.4963 10.5 19.5803 10.348 19.6283 10.18C19.6763 10.012 19.7003 9.848 19.7003 9.688V9.628ZM13.5323 6.304H16.6163V7.12C16.6963 7.04 16.8083 6.948 16.9523 6.844C17.0963 6.732 17.2763 6.628 17.4923 6.532C17.7163 6.428 17.9763 6.344 18.2723 6.28C18.5763 6.208 18.9243 6.172 19.3163 6.172H19.4123C20.0843 6.172 20.6443 6.268 21.0923 6.46C21.5483 6.652 21.9083 6.904 22.1723 7.216C22.4443 7.528 22.6363 7.888 22.7483 8.296C22.8683 8.696 22.9283 9.104 22.9283 9.52V9.724C22.9283 10.108 22.8683 10.504 22.7483 10.912C22.6363 11.312 22.4363 11.68 22.1483 12.016C21.8683 12.344 21.4963 12.612 21.0323 12.82C20.5683 13.028 19.9883 13.132 19.2923 13.132H19.1843C18.8003 13.132 18.4603 13.096 18.1643 13.024C17.8763 12.96 17.6283 12.88 17.4203 12.784C17.2123 12.688 17.0443 12.592 16.9163 12.496C16.7883 12.4 16.6883 12.32 16.6163 12.256V15.268H13.5323V6.304ZM27.4927 13H24.3487V6.304H27.4327V10.06L30.2647 6.304H33.4087V13H30.3247V9.28L27.4927 13ZM44.3931 9.94C44.3931 10.556 44.2691 11.072 44.0211 11.488C43.7731 11.904 43.4371 12.24 43.0131 12.496C42.5891 12.744 42.0971 12.92 41.5371 13.024C40.9771 13.128 40.3811 13.18 39.7491 13.18H39.5091C38.8771 13.18 38.2771 13.12 37.7091 13C37.1411 12.888 36.6411 12.68 36.2091 12.376C35.7851 12.064 35.4451 11.644 35.1891 11.116C34.9411 10.588 34.8171 9.916 34.8171 9.1V8.764C34.8171 7.94 34.9291 7.236 35.1531 6.652C35.3771 6.06 35.7011 5.58 36.1251 5.212C36.5491 4.836 37.0651 4.564 37.6731 4.396C38.2891 4.22 38.9891 4.132 39.7731 4.132H40.4211C40.5891 4.132 40.7211 4.128 40.8171 4.12C40.9131 4.112 40.9891 4.1 41.0451 4.084C41.1011 4.06 41.1411 4.036 41.1651 4.012C41.1971 3.988 41.2211 3.956 41.2371 3.916H44.1291C44.1291 4.324 44.0971 4.672 44.0331 4.96C43.9771 5.248 43.8571 5.488 43.6731 5.68C43.4971 5.864 43.2411 6 42.9051 6.088C42.5771 6.176 42.1451 6.22 41.6091 6.22H40.1451C39.6731 6.22 39.2811 6.252 38.9691 6.316C38.6571 6.38 38.4091 6.48 38.2251 6.616C38.0411 6.744 37.9091 6.904 37.8291 7.096C37.7491 7.288 37.7051 7.508 37.6971 7.756C38.0411 7.452 38.4491 7.216 38.9211 7.048C39.4011 6.872 40.0171 6.784 40.7691 6.784H40.9491C41.3411 6.784 41.7411 6.836 42.1491 6.94C42.5651 7.044 42.9371 7.216 43.2651 7.456C43.5931 7.688 43.8611 8 44.0691 8.392C44.2851 8.776 44.3931 9.252 44.3931 9.82V9.94ZM39.6531 11.2C40.0851 11.2 40.4451 11.096 40.7331 10.888C41.0291 10.672 41.1771 10.336 41.1771 9.88C41.1771 9.664 41.1371 9.476 41.0571 9.316C40.9771 9.148 40.8691 9.012 40.7331 8.908C40.5971 8.796 40.4371 8.716 40.2531 8.668C40.0691 8.612 39.8691 8.584 39.6531 8.584H39.5571C39.1171 8.584 38.7531 8.688 38.4651 8.896C38.1771 9.104 38.0331 9.436 38.0331 9.892C38.0331 10.348 38.1731 10.68 38.4531 10.888C38.7411 11.096 39.1091 11.2 39.5571 11.2H39.6531ZM45.794 6.304H48.878V8.02H51.506C52.074 8.02 52.558 8.084 52.958 8.212C53.366 8.332 53.694 8.5 53.942 8.716C54.198 8.932 54.382 9.184 54.494 9.472C54.614 9.76 54.674 10.072 54.674 10.408V10.552C54.674 10.92 54.614 11.256 54.494 11.56C54.382 11.856 54.198 12.112 53.942 12.328C53.694 12.544 53.366 12.712 52.958 12.832C52.558 12.944 52.074 13 51.506 13H45.794V6.304ZM50.642 11.14C50.85 11.14 51.038 11.1 51.206 11.02C51.382 10.932 51.47 10.76 51.47 10.504V10.468C51.47 10.228 51.382 10.068 51.206 9.988C51.038 9.908 50.85 9.868 50.642 9.868H48.878V11.14H50.642ZM58.418 13H55.334V6.304H58.418V13ZM65.7289 8.284H63.7129C63.7129 9.052 63.6929 9.708 63.6529 10.252C63.6129 10.788 63.5369 11.208 63.4249 11.512C63.3609 11.68 63.2769 11.852 63.1729 12.028C63.0769 12.204 62.9369 12.364 62.7529 12.508C62.5689 12.652 62.3249 12.772 62.0209 12.868C61.7169 12.956 61.3329 13 60.8689 13H59.7169V11.032H59.8609C60.0689 11.032 60.2449 10.988 60.3889 10.9C60.5409 10.804 60.6489 10.62 60.7129 10.348C60.7449 10.204 60.7689 10.048 60.7849 9.88C60.8089 9.704 60.8249 9.468 60.8329 9.172C60.8409 8.876 60.8449 8.504 60.8449 8.056C60.8529 7.6 60.8569 7.016 60.8569 6.304H68.8129V13H65.7289V8.284ZM70.5674 6.304H73.6514V8.02H76.2794C76.8474 8.02 77.3314 8.084 77.7314 8.212C78.1394 8.332 78.4674 8.5 78.7154 8.716C78.9714 8.932 79.1554 9.184 79.2674 9.472C79.3874 9.76 79.4474 10.072 79.4474 10.408V10.552C79.4474 10.92 79.3874 11.256 79.2674 11.56C79.1554 11.856 78.9714 12.112 78.7154 12.328C78.4674 12.544 78.1394 12.712 77.7314 12.832C77.3314 12.944 76.8474 13 76.2794 13H70.5674V6.304ZM75.4154 11.14C75.6234 11.14 75.8114 11.1 75.9794 11.02C76.1554 10.932 76.2434 10.76 76.2434 10.504V10.468C76.2434 10.228 76.1554 10.068 75.9794 9.988C75.8114 9.908 75.6234 9.868 75.4154 9.868H73.6514V11.14H75.4154ZM85.1433 4.312L81.9513 13.12H79.9233L83.1153 4.312H85.1433ZM86.4919 13.324H88.0399C88.2319 13.324 88.3279 13.256 88.3279 13.12C88.3279 13.064 88.3119 13 88.2799 12.928C88.2479 12.848 88.1999 12.736 88.1359 12.592L85.2079 6.304H88.6039L90.1879 10.672L91.6159 6.304H94.7719L91.7959 13.552C91.5639 14.128 91.2559 14.556 90.8719 14.836C90.4879 15.124 89.9759 15.268 89.3359 15.268H86.4919V13.324ZM104.909 9.94C104.909 10.556 104.785 11.072 104.537 11.488C104.289 11.904 103.953 12.24 103.529 12.496C103.105 12.744 102.613 12.92 102.053 13.024C101.493 13.128 100.897 13.18 100.265 13.18H100.025C99.3927 13.18 98.7927 13.12 98.2247 13C97.6567 12.888 97.1567 12.68 96.7247 12.376C96.3007 12.064 95.9607 11.644 95.7047 11.116C95.4567 10.588 95.3327 9.916 95.3327 9.1V8.764C95.3327 7.94 95.4447 7.236 95.6687 6.652C95.8927 6.06 96.2167 5.58 96.6407 5.212C97.0647 4.836 97.5807 4.564 98.1887 4.396C98.8047 4.22 99.5047 4.132 100.289 4.132H100.937C101.105 4.132 101.237 4.128 101.333 4.12C101.429 4.112 101.505 4.1 101.561 4.084C101.617 4.06 101.657 4.036 101.681 4.012C101.713 3.988 101.737 3.956 101.753 3.916H104.645C104.645 4.324 104.613 4.672 104.549 4.96C104.493 5.248 104.373 5.488 104.189 5.68C104.013 5.864 103.757 6 103.421 6.088C103.093 6.176 102.661 6.22 102.125 6.22H100.661C100.189 6.22 99.7967 6.252 99.4847 6.316C99.1727 6.38 98.9247 6.48 98.7407 6.616C98.5567 6.744 98.4247 6.904 98.3447 7.096C98.2647 7.288 98.2207 7.508 98.2127 7.756C98.5567 7.452 98.9647 7.216 99.4367 7.048C99.9167 6.872 100.533 6.784 101.285 6.784H101.465C101.857 6.784 102.257 6.836 102.665 6.94C103.081 7.044 103.453 7.216 103.781 7.456C104.109 7.688 104.377 8 104.585 8.392C104.801 8.776 104.909 9.252 104.909 9.82V9.94ZM100.169 11.2C100.601 11.2 100.961 11.096 101.249 10.888C101.545 10.672 101.693 10.336 101.693 9.88C101.693 9.664 101.653 9.476 101.573 9.316C101.493 9.148 101.385 9.012 101.249 8.908C101.113 8.796 100.953 8.716 100.769 8.668C100.585 8.612 100.385 8.584 100.169 8.584H100.073C99.6327 8.584 99.2687 8.688 98.9807 8.896C98.6927 9.104 98.5487 9.436 98.5487 9.892C98.5487 10.348 98.6887 10.68 98.9687 10.888C99.2567 11.096 99.6247 11.2 100.073 11.2H100.169ZM106.31 6.304H109.394V8.02H112.022C112.59 8.02 113.074 8.084 113.474 8.212C113.882 8.332 114.21 8.5 114.458 8.716C114.714 8.932 114.898 9.184 115.01 9.472C115.13 9.76 115.19 10.072 115.19 10.408V10.552C115.19 10.92 115.13 11.256 115.01 11.56C114.898 11.856 114.714 12.112 114.458 12.328C114.21 12.544 113.882 12.712 113.474 12.832C113.074 12.944 112.59 13 112.022 13H106.31V6.304ZM111.158 11.14C111.366 11.14 111.554 11.1 111.722 11.02C111.898 10.932 111.986 10.76 111.986 10.504V10.468C111.986 10.228 111.898 10.068 111.722 9.988C111.554 9.908 111.366 9.868 111.158 9.868H109.394V11.14H111.158ZM118.934 13H115.85V6.304H118.934V13ZM126.245 8.284H124.229C124.229 9.052 124.209 9.708 124.169 10.252C124.129 10.788 124.053 11.208 123.941 11.512C123.877 11.68 123.793 11.852 123.689 12.028C123.593 12.204 123.453 12.364 123.269 12.508C123.085 12.652 122.841 12.772 122.537 12.868C122.233 12.956 121.849 13 121.385 13H120.233V11.032H120.377C120.585 11.032 120.761 10.988 120.905 10.9C121.057 10.804 121.165 10.62 121.229 10.348C121.261 10.204 121.285 10.048 121.301 9.88C121.325 9.704 121.341 9.468 121.349 9.172C121.357 8.876 121.361 8.504 121.361 8.056C121.369 7.6 121.373 7.016 121.373 6.304H129.329V13H126.245V8.284ZM131.083 6.304H134.167V8.02H136.795C137.363 8.02 137.847 8.084 138.247 8.212C138.655 8.332 138.983 8.5 139.231 8.716C139.487 8.932 139.671 9.184 139.783 9.472C139.903 9.76 139.963 10.072 139.963 10.408V10.552C139.963 10.92 139.903 11.256 139.783 11.56C139.671 11.856 139.487 12.112 139.231 12.328C138.983 12.544 138.655 12.712 138.247 12.832C137.847 12.944 137.363 13 136.795 13H131.083V6.304ZM135.931 11.14C136.139 11.14 136.327 11.1 136.495 11.02C136.671 10.932 136.759 10.76 136.759 10.504V10.468C136.759 10.228 136.671 10.068 136.495 9.988C136.327 9.908 136.139 9.868 135.931 9.868H134.167V11.14H135.931ZM20.8682 28V21.304H23.9522V23.62H26.7482V21.304H29.8322V28H26.7482V25.6H23.9522V28H20.8682ZM35.1911 26.464C35.4631 26.464 35.6951 26.428 35.8871 26.356C36.0791 26.276 36.2351 26.18 36.3551 26.068C36.4831 25.948 36.5751 25.82 36.6311 25.684C36.6871 25.54 36.7151 25.4 36.7151 25.264V24.94C36.6031 24.964 36.4351 24.996 36.2111 25.036C35.9951 25.076 35.7591 25.116 35.5031 25.156C35.2551 25.196 35.0511 25.24 34.8911 25.288C34.7311 25.328 34.6031 25.376 34.5071 25.432C34.4191 25.48 34.3551 25.54 34.3151 25.612C34.2831 25.684 34.2671 25.768 34.2671 25.864V25.888C34.2671 26.064 34.3431 26.204 34.4951 26.308C34.6471 26.412 34.8791 26.464 35.1911 26.464ZM36.7991 27.16C36.7431 27.224 36.6511 27.312 36.5231 27.424C36.4031 27.528 36.2391 27.636 36.0311 27.748C35.8231 27.852 35.5671 27.944 35.2631 28.024C34.9671 28.104 34.6111 28.144 34.1951 28.144H33.9911C33.5191 28.144 33.1111 28.092 32.7671 27.988C32.4231 27.876 32.1351 27.724 31.9031 27.532C31.6711 27.34 31.4991 27.112 31.3871 26.848C31.2751 26.584 31.2191 26.296 31.2191 25.984V25.924C31.2191 25.612 31.2711 25.34 31.3751 25.108C31.4791 24.868 31.6511 24.664 31.8911 24.496C32.1391 24.328 32.4631 24.196 32.8631 24.1C33.2631 23.996 33.7591 23.924 34.3511 23.884L36.2471 23.776C36.4231 23.76 36.5431 23.724 36.6071 23.668C36.6791 23.604 36.7151 23.512 36.7151 23.392V23.38C36.7151 23.308 36.7031 23.24 36.6791 23.176C36.6551 23.112 36.6031 23.056 36.5231 23.008C36.4431 22.952 36.3271 22.912 36.1751 22.888C36.0311 22.856 35.8391 22.84 35.5991 22.84H35.5511C35.2871 22.84 35.0791 22.864 34.9271 22.912C34.7831 22.96 34.6711 23.02 34.5911 23.092C34.5191 23.156 34.4711 23.224 34.4471 23.296C34.4311 23.368 34.4231 23.424 34.4231 23.464H31.3871V23.452C31.3871 23.228 31.4231 22.984 31.4951 22.72C31.5751 22.448 31.7511 22.196 32.0231 21.964C32.2951 21.724 32.6911 21.528 33.2111 21.376C33.7391 21.216 34.4511 21.136 35.3471 21.136H35.7551C36.6671 21.136 37.3871 21.208 37.9151 21.352C38.4511 21.496 38.8511 21.684 39.1151 21.916C39.3871 22.14 39.5591 22.388 39.6311 22.66C39.7031 22.932 39.7391 23.2 39.7391 23.464V25.528C39.7391 25.648 39.7591 25.736 39.7991 25.792C39.8471 25.848 39.9351 25.876 40.0631 25.876H40.4351V28H37.9391C37.7711 28 37.6231 27.976 37.4951 27.928C37.3671 27.872 37.2551 27.804 37.1591 27.724C37.0711 27.636 36.9951 27.544 36.9311 27.448C36.8751 27.352 36.8311 27.256 36.7991 27.16ZM50.5501 25.228C50.5501 25.396 50.5341 25.588 50.5021 25.804C50.4701 26.012 50.4021 26.224 50.2981 26.44C50.1941 26.656 50.0461 26.872 49.8541 27.088C49.6621 27.296 49.4061 27.48 49.0861 27.64C48.7661 27.8 48.3741 27.928 47.9101 28.024C47.4461 28.128 46.8941 28.18 46.2541 28.18H45.6661C44.7141 28.18 43.9501 28.064 43.3741 27.832C42.7981 27.592 42.3541 27.296 42.0421 26.944C41.7301 26.592 41.5221 26.212 41.4181 25.804C41.3221 25.396 41.2741 25.02 41.2741 24.676V24.508C41.2741 24.172 41.3261 23.808 41.4301 23.416C41.5341 23.016 41.7421 22.648 42.0541 22.312C42.3741 21.968 42.8181 21.684 43.3861 21.46C43.9621 21.236 44.7181 21.124 45.6541 21.124H46.1221C46.8021 21.124 47.3821 21.172 47.8621 21.268C48.3421 21.364 48.7461 21.492 49.0741 21.652C49.4021 21.812 49.6621 21.996 49.8541 22.204C50.0541 22.404 50.2021 22.608 50.2981 22.816C50.4021 23.024 50.4701 23.228 50.5021 23.428C50.5341 23.628 50.5501 23.804 50.5501 23.956V23.968H47.3341C47.3261 23.912 47.3021 23.836 47.2621 23.74C47.2301 23.644 47.1661 23.548 47.0701 23.452C46.9741 23.356 46.8381 23.276 46.6621 23.212C46.4861 23.14 46.2621 23.104 45.9901 23.104H45.8941C45.6221 23.104 45.3941 23.148 45.2101 23.236C45.0341 23.316 44.8901 23.428 44.7781 23.572C44.6741 23.708 44.5981 23.864 44.5501 24.04C44.5101 24.216 44.4901 24.396 44.4901 24.58V24.592C44.4901 24.784 44.5141 24.972 44.5621 25.156C44.6101 25.34 44.6861 25.508 44.7901 25.66C44.9021 25.812 45.0461 25.936 45.2221 26.032C45.4061 26.12 45.6341 26.164 45.9061 26.164H46.0021C46.2821 26.164 46.5061 26.124 46.6741 26.044C46.8501 25.964 46.9861 25.872 47.0821 25.768C47.1781 25.664 47.2421 25.56 47.2741 25.456C47.3061 25.352 47.3261 25.272 47.3341 25.216H50.5501V25.228ZM56.338 22.828C55.842 22.828 55.482 22.916 55.258 23.092C55.042 23.268 54.898 23.52 54.826 23.848H57.814C57.814 23.72 57.79 23.596 57.742 23.476C57.702 23.348 57.626 23.236 57.514 23.14C57.41 23.044 57.262 22.968 57.07 22.912C56.878 22.856 56.634 22.828 56.338 22.828ZM61.066 25.816C61.058 25.944 61.03 26.092 60.982 26.26C60.942 26.428 60.862 26.6 60.742 26.776C60.63 26.952 60.474 27.124 60.274 27.292C60.074 27.46 59.81 27.608 59.482 27.736C59.162 27.864 58.77 27.968 58.306 28.048C57.85 28.128 57.306 28.168 56.674 28.168H56.146C55.202 28.168 54.434 28.06 53.842 27.844C53.258 27.628 52.798 27.352 52.462 27.016C52.134 26.68 51.91 26.312 51.79 25.912C51.67 25.504 51.61 25.112 51.61 24.736V24.568C51.61 24.184 51.67 23.792 51.79 23.392C51.91 22.984 52.13 22.612 52.45 22.276C52.778 21.94 53.226 21.668 53.794 21.46C54.37 21.244 55.11 21.136 56.014 21.136H56.554C57.514 21.136 58.29 21.244 58.882 21.46C59.474 21.676 59.934 21.964 60.262 22.324C60.59 22.676 60.81 23.08 60.922 23.536C61.034 23.992 61.09 24.46 61.09 24.94V25.192H54.802C54.866 25.552 55.026 25.832 55.282 26.032C55.538 26.232 55.946 26.332 56.506 26.332C56.77 26.332 56.986 26.312 57.154 26.272C57.322 26.224 57.454 26.172 57.55 26.116C57.646 26.06 57.71 26.004 57.742 25.948C57.782 25.884 57.81 25.84 57.826 25.816H61.066ZM67.932 23.284H65.916C65.916 24.052 65.896 24.708 65.856 25.252C65.816 25.788 65.74 26.208 65.628 26.512C65.564 26.68 65.48 26.852 65.376 27.028C65.28 27.204 65.14 27.364 64.956 27.508C64.772 27.652 64.528 27.772 64.224 27.868C63.92 27.956 63.536 28 63.072 28H61.92V26.032H62.064C62.272 26.032 62.448 25.988 62.592 25.9C62.744 25.804 62.852 25.62 62.916 25.348C62.948 25.204 62.972 25.048 62.988 24.88C63.012 24.704 63.028 24.468 63.036 24.172C63.044 23.876 63.048 23.504 63.048 23.056C63.056 22.6 63.06 22.016 63.06 21.304H71.016V28H67.932V23.284ZM77.1505 22.828C76.6545 22.828 76.2945 22.916 76.0705 23.092C75.8545 23.268 75.7105 23.52 75.6385 23.848H78.6265C78.6265 23.72 78.6025 23.596 78.5545 23.476C78.5145 23.348 78.4385 23.236 78.3265 23.14C78.2225 23.044 78.0745 22.968 77.8825 22.912C77.6905 22.856 77.4465 22.828 77.1505 22.828ZM81.8785 25.816C81.8705 25.944 81.8425 26.092 81.7945 26.26C81.7545 26.428 81.6745 26.6 81.5545 26.776C81.4425 26.952 81.2865 27.124 81.0865 27.292C80.8865 27.46 80.6225 27.608 80.2945 27.736C79.9745 27.864 79.5825 27.968 79.1185 28.048C78.6625 28.128 78.1185 28.168 77.4865 28.168H76.9585C76.0145 28.168 75.2465 28.06 74.6545 27.844C74.0705 27.628 73.6105 27.352 73.2745 27.016C72.9465 26.68 72.7225 26.312 72.6025 25.912C72.4825 25.504 72.4225 25.112 72.4225 24.736V24.568C72.4225 24.184 72.4825 23.792 72.6025 23.392C72.7225 22.984 72.9425 22.612 73.2625 22.276C73.5905 21.94 74.0385 21.668 74.6065 21.46C75.1825 21.244 75.9225 21.136 76.8265 21.136H77.3665C78.3265 21.136 79.1025 21.244 79.6945 21.46C80.2865 21.676 80.7465 21.964 81.0745 22.324C81.4025 22.676 81.6225 23.08 81.7345 23.536C81.8465 23.992 81.9025 24.46 81.9025 24.94V25.192H75.6145C75.6785 25.552 75.8385 25.832 76.0945 26.032C76.3505 26.232 76.7585 26.332 77.3185 26.332C77.5825 26.332 77.7985 26.312 77.9665 26.272C78.1345 26.224 78.2665 26.172 78.3625 26.116C78.4585 26.06 78.5225 26.004 78.5545 25.948C78.5945 25.884 78.6225 25.84 78.6385 25.816H81.8785ZM83.3057 28V21.304H86.3897V23.62H89.1857V21.304H92.2697V28H89.1857V25.6H86.3897V28H83.3057ZM97.1606 28H94.0166V21.304H97.1006V25.06L99.9326 21.304H103.077V28H99.9926V24.28L97.1606 28ZM109.489 25.984L107.905 28H104.449L106.369 25.576C105.865 25.44 105.473 25.208 105.193 24.88C104.913 24.544 104.773 24.128 104.773 23.632V23.548C104.773 23.228 104.829 22.932 104.941 22.66C105.053 22.38 105.229 22.14 105.469 21.94C105.709 21.74 106.013 21.584 106.381 21.472C106.749 21.36 107.189 21.304 107.701 21.304H113.881V28H110.797V25.984H109.489ZM108.769 23.044C108.553 23.044 108.361 23.092 108.193 23.188C108.033 23.276 107.953 23.436 107.953 23.668V23.692C107.953 23.924 108.033 24.088 108.193 24.184C108.361 24.28 108.553 24.328 108.769 24.328H110.797V23.044H108.769ZM119.259 28V21.304H125.751C126.511 21.304 127.115 21.44 127.563 21.712C128.011 21.984 128.235 22.384 128.235 22.912V22.972C128.235 23.404 128.111 23.744 127.863 23.992C127.623 24.24 127.303 24.396 126.903 24.46C127.103 24.484 127.295 24.54 127.479 24.628C127.671 24.708 127.839 24.816 127.983 24.952C128.127 25.088 128.239 25.252 128.319 25.444C128.407 25.628 128.451 25.84 128.451 26.08V26.128C128.451 26.736 128.247 27.2 127.839 27.52C127.439 27.84 126.823 28 125.991 28H119.259ZM124.263 23.92C124.543 23.92 124.739 23.872 124.851 23.776C124.971 23.68 125.031 23.544 125.031 23.368V23.344C125.031 23.176 124.971 23.044 124.851 22.948C124.739 22.852 124.543 22.804 124.263 22.804H122.343V23.92H124.263ZM124.371 26.5C124.955 26.5 125.247 26.304 125.247 25.912V25.876C125.247 25.692 125.179 25.548 125.043 25.444C124.915 25.332 124.691 25.276 124.371 25.276H122.343V26.5H124.371ZM135.021 19.312C135.693 19.312 136.233 19.548 136.641 20.02C137.049 20.484 137.253 21.14 137.253 21.988C137.253 22.836 137.061 23.5 136.677 23.98C136.301 24.452 135.749 24.688 135.021 24.688C134.589 24.688 134.209 24.58 133.881 24.364C133.553 24.148 133.297 23.84 133.113 23.44C132.929 23.032 132.837 22.548 132.837 21.988C132.837 21.14 133.025 20.484 133.401 20.02C133.777 19.548 134.317 19.312 135.021 19.312ZM135.045 20.74C134.877 20.74 134.761 20.856 134.697 21.088C134.633 21.312 134.601 21.62 134.601 22.012C134.601 22.396 134.633 22.704 134.697 22.936C134.761 23.168 134.877 23.284 135.045 23.284C135.213 23.284 135.329 23.172 135.393 22.948C135.457 22.716 135.489 22.404 135.489 22.012C135.489 21.62 135.457 21.312 135.393 21.088C135.329 20.856 135.213 20.74 135.045 20.74ZM141.525 19.432L136.773 28H135.033L139.785 19.432H141.525ZM141.537 22.72C141.985 22.72 142.377 22.828 142.713 23.044C143.049 23.252 143.309 23.556 143.493 23.956C143.677 24.348 143.769 24.828 143.769 25.396C143.769 26.244 143.577 26.908 143.193 27.388C142.817 27.86 142.265 28.096 141.537 28.096C141.105 28.096 140.725 27.988 140.397 27.772C140.069 27.556 139.813 27.248 139.629 26.848C139.445 26.44 139.353 25.956 139.353 25.396C139.353 24.548 139.541 23.892 139.917 23.428C140.293 22.956 140.833 22.72 141.537 22.72ZM141.561 24.148C141.393 24.148 141.277 24.264 141.213 24.496C141.149 24.72 141.117 25.028 141.117 25.42C141.117 25.804 141.149 26.112 141.213 26.344C141.277 26.576 141.393 26.692 141.561 26.692C141.729 26.692 141.845 26.58 141.909 26.356C141.973 26.124 142.005 25.812 142.005 25.42C142.005 25.02 141.973 24.708 141.909 24.484C141.845 24.26 141.729 24.148 141.561 24.148ZM53.4398 50.08H58.4998V51.44H53.4398V50.08ZM65.705 46.1C66.8917 46.1 67.9117 46.58 68.765 47.54C69.6317 48.5 70.065 49.6867 70.065 51.1C70.065 52.5 69.645 53.7067 68.805 54.72C67.965 55.72 66.665 56.22 64.905 56.22C64.0517 56.22 63.2583 56.0867 62.525 55.82C61.7917 55.54 61.225 55.16 60.825 54.68V51.9H61.845L62.685 54.62C63.325 55.1133 64.0717 55.36 64.925 55.36C65.7783 55.36 66.505 54.9867 67.105 54.24C67.705 53.48 68.005 52.5267 68.005 51.38C68.005 50.22 67.6917 49.2667 67.065 48.52C66.4383 47.76 65.705 47.38 64.865 47.38C63.7317 47.38 62.8317 48.0667 62.165 49.44H60.925L61.885 41H68.925V42.68H62.585L61.925 48.62C62.3383 47.7 62.885 47.0533 63.565 46.68C64.2583 46.2933 64.9717 46.1 65.705 46.1ZM76.8456 50.8C75.4856 50.8 74.4123 50.3 73.6256 49.3C72.8523 48.2867 72.4656 47.1133 72.4656 45.78C72.4656 44.4333 72.8856 43.26 73.7256 42.26C74.579 41.2467 75.7723 40.74 77.3056 40.74C78.4923 40.74 79.5056 41.0867 80.3456 41.78C81.9056 43.0867 82.6856 45.1 82.6856 47.82C82.6856 50.2867 82.1256 52.3 81.0056 53.86C79.899 55.4067 78.4656 56.18 76.7056 56.18C75.4656 56.18 74.219 55.7067 72.9656 54.76V51.8H73.9856L74.8056 54.74C75.6323 55.1533 76.3856 55.36 77.0656 55.36C78.2923 55.36 79.1723 54.7667 79.7056 53.58C80.239 52.3933 80.5323 50.6333 80.5856 48.3C79.7856 49.9667 78.539 50.8 76.8456 50.8ZM80.5656 45.62V45.46C80.5656 44.22 80.279 43.2733 79.7056 42.62C79.1323 41.9533 78.399 41.62 77.5056 41.62C76.6256 41.62 75.919 42 75.3856 42.76C74.8523 43.5067 74.5856 44.42 74.5856 45.5C74.5856 46.5667 74.859 47.5133 75.4056 48.34C75.9656 49.1667 76.6856 49.58 77.5656 49.58C78.4456 49.58 79.1656 49.24 79.7256 48.56C80.2856 47.8667 80.5656 46.8867 80.5656 45.62ZM90.6078 50.08H105.568V51.44H90.6078V50.08ZM113.401 50.08H118.461V51.44H113.401V50.08ZM126.206 47.16C127.593 47.3067 128.646 47.7733 129.366 48.56C130.086 49.3467 130.446 50.4267 130.446 51.8C130.446 53.1733 129.926 54.2667 128.886 55.08C127.859 55.8933 126.619 56.3 125.166 56.3C123.419 56.3 121.959 55.7333 120.786 54.6V51.86H121.806L122.766 54.54C123.579 55.26 124.433 55.62 125.326 55.62C126.219 55.62 126.946 55.2933 127.506 54.64C128.079 53.9733 128.379 52.9933 128.406 51.7C128.326 50.3 127.999 49.3 127.426 48.7C126.866 48.0867 126.073 47.78 125.046 47.78H123.746L127.786 41.9H122.606L121.846 45.14H120.826V41H130.086V41.72L126.206 47.16ZM137.797 41.62C136.81 41.62 136.043 42.1867 135.497 43.32C134.95 44.44 134.677 46.1 134.677 48.3C134.677 53.02 135.723 55.38 137.817 55.38C138.83 55.38 139.61 54.8133 140.157 53.68C140.717 52.5333 140.997 50.84 140.997 48.6C140.997 43.9467 139.93 41.62 137.797 41.62ZM132.437 48.48C132.437 46.0267 132.93 44.1467 133.917 42.84C134.917 41.52 136.217 40.86 137.817 40.86C139.417 40.86 140.71 41.52 141.697 42.84C142.697 44.16 143.197 46.0533 143.197 48.52C143.197 50.9733 142.69 52.86 141.677 54.18C140.663 55.5 139.37 56.16 137.797 56.16C136.237 56.16 134.95 55.4933 133.937 54.16C132.937 52.8133 132.437 50.92 132.437 48.48ZM56.7992 78.08H61.8592V79.44H56.7992V78.08ZM69.6044 75.16C70.991 75.3067 72.0444 75.7733 72.7644 76.56C73.4844 77.3467 73.8444 78.4267 73.8444 79.8C73.8444 81.1733 73.3244 82.2667 72.2844 83.08C71.2577 83.8933 70.0177 84.3 68.5644 84.3C66.8177 84.3 65.3577 83.7333 64.1844 82.6V79.86H65.2044L66.1644 82.54C66.9777 83.26 67.831 83.62 68.7244 83.62C69.6177 83.62 70.3444 83.2933 70.9044 82.64C71.4777 81.9733 71.7777 80.9933 71.8044 79.7C71.7244 78.3 71.3977 77.3 70.8244 76.7C70.2644 76.0867 69.471 75.78 68.4444 75.78H67.1444L71.1844 69.9H66.0044L65.2444 73.14H64.2244V69H73.4844V69.72L69.6044 75.16ZM81.1952 69.62C80.2085 69.62 79.4418 70.1867 78.8952 71.32C78.3485 72.44 78.0752 74.1 78.0752 76.3C78.0752 81.02 79.1218 83.38 81.2152 83.38C82.2285 83.38 83.0085 82.8133 83.5552 81.68C84.1152 80.5333 84.3952 78.84 84.3952 76.6C84.3952 71.9467 83.3285 69.62 81.1952 69.62ZM75.8352 76.48C75.8352 74.0267 76.3285 72.1467 77.3152 70.84C78.3152 69.52 79.6152 68.86 81.2152 68.86C82.8152 68.86 84.1085 69.52 85.0952 70.84C86.0952 72.16 86.5952 74.0533 86.5952 76.52C86.5952 78.9733 86.0885 80.86 85.0752 82.18C84.0618 83.5 82.7685 84.16 81.1952 84.16C79.6352 84.16 78.3485 83.4933 77.3352 82.16C76.3352 80.8133 75.8352 78.92 75.8352 76.48ZM94.1234 78.08H109.083V79.44H94.1234V78.08ZM116.916 78.08H121.976V79.44H116.916V78.08ZM125.582 84V83.26L127.522 82.8V70.4L124.102 72.44V71.48L128.362 68.98H129.622V82.8L131.662 83.26V84H125.582ZM138.439 74.1C139.626 74.1 140.646 74.58 141.499 75.54C142.366 76.5 142.799 77.6867 142.799 79.1C142.799 80.5 142.379 81.7067 141.539 82.72C140.699 83.72 139.399 84.22 137.639 84.22C136.786 84.22 135.993 84.0867 135.259 83.82C134.526 83.54 133.959 83.16 133.559 82.68V79.9H134.579L135.419 82.62C136.059 83.1133 136.806 83.36 137.659 83.36C138.513 83.36 139.239 82.9867 139.839 82.24C140.439 81.48 140.739 80.5267 140.739 79.38C140.739 78.22 140.426 77.2667 139.799 76.52C139.173 75.76 138.439 75.38 137.599 75.38C136.466 75.38 135.566 76.0667 134.899 77.44H133.659L134.619 69H141.659V70.68H135.319L134.659 76.62C135.073 75.7 135.619 75.0533 136.299 74.68C136.993 74.2933 137.706 74.1 138.439 74.1ZM76.1352 106.08H81.1952V107.44H76.1352V106.08ZM84.8003 112V111.26L86.7403 110.8V98.4L83.3203 100.44V99.48L87.5803 96.98H88.8403V110.8L90.8803 111.26V112H84.8003ZM97.6581 102.1C98.8448 102.1 99.8648 102.58 100.718 103.54C101.585 104.5 102.018 105.687 102.018 107.1C102.018 108.5 101.598 109.707 100.758 110.72C99.9181 111.72 98.6181 112.22 96.8581 112.22C96.0048 112.22 95.2115 112.087 94.4781 111.82C93.7448 111.54 93.1781 111.16 92.7781 110.68V107.9H93.7981L94.6381 110.62C95.2781 111.113 96.0248 111.36 96.8781 111.36C97.7315 111.36 98.4581 110.987 99.0581 110.24C99.6581 109.48 99.9581 108.527 99.9581 107.38C99.9581 106.22 99.6448 105.267 99.0181 104.52C98.3915 103.76 97.6581 103.38 96.8181 103.38C95.6848 103.38 94.7848 104.067 94.1181 105.44H92.8781L93.8381 97H100.878V98.68H94.5381L93.8781 104.62C94.2915 103.7 94.8381 103.053 95.5181 102.68C96.2115 102.293 96.9248 102.1 97.6581 102.1ZM109.944 106.08H124.904V107.44H109.944V106.08ZM137.797 97.62C136.81 97.62 136.043 98.1867 135.497 99.32C134.95 100.44 134.677 102.1 134.677 104.3C134.677 109.02 135.723 111.38 137.817 111.38C138.83 111.38 139.61 110.813 140.157 109.68C140.717 108.533 140.997 106.84 140.997 104.6C140.997 99.9467 139.93 97.62 137.797 97.62ZM132.437 104.48C132.437 102.027 132.93 100.147 133.917 98.84C134.917 97.52 136.217 96.86 137.817 96.86C139.417 96.86 140.71 97.52 141.697 98.84C142.697 100.16 143.197 102.053 143.197 104.52C143.197 106.973 142.69 108.86 141.677 110.18C140.663 111.5 139.37 112.16 137.797 112.16C136.237 112.16 134.95 111.493 133.937 110.16C132.937 108.813 132.437 106.92 132.437 104.48ZM88.4803 125.62C87.4936 125.62 86.727 126.187 86.1803 127.32C85.6336 128.44 85.3603 130.1 85.3603 132.3C85.3603 137.02 86.407 139.38 88.5003 139.38C89.5136 139.38 90.2936 138.813 90.8403 137.68C91.4003 136.533 91.6803 134.84 91.6803 132.6C91.6803 127.947 90.6136 125.62 88.4803 125.62ZM83.1203 132.48C83.1203 130.027 83.6136 128.147 84.6003 126.84C85.6003 125.52 86.9003 124.86 88.5003 124.86C90.1003 124.86 91.3936 125.52 92.3803 126.84C93.3803 128.16 93.8803 130.053 93.8803 132.52C93.8803 134.973 93.3736 136.86 92.3603 138.18C91.347 139.5 90.0536 140.16 88.4803 140.16C86.9203 140.16 85.6336 139.493 84.6203 138.16C83.6203 136.813 83.1203 134.92 83.1203 132.48ZM101.409 134.08H116.369V135.44H101.409V134.08ZM125.582 140V139.26L127.522 138.8V126.4L124.102 128.44V127.48L128.362 124.98H129.622V138.8L131.662 139.26V140H125.582ZM138.439 130.1C139.626 130.1 140.646 130.58 141.499 131.54C142.366 132.5 142.799 133.687 142.799 135.1C142.799 136.5 142.379 137.707 141.539 138.72C140.699 139.72 139.399 140.22 137.639 140.22C136.786 140.22 135.993 140.087 135.259 139.82C134.526 139.54 133.959 139.16 133.559 138.68V135.9H134.579L135.419 138.62C136.059 139.113 136.806 139.36 137.659 139.36C138.513 139.36 139.239 138.987 139.839 138.24C140.439 137.48 140.739 136.527 140.739 135.38C140.739 134.22 140.426 133.267 139.799 132.52C139.173 131.76 138.439 131.38 137.599 131.38C136.466 131.38 135.566 132.067 134.899 133.44H133.659L134.619 125H141.659V126.68H135.319L134.659 132.62C135.073 131.7 135.619 131.053 136.299 130.68C136.993 130.293 137.706 130.1 138.439 130.1ZM72.7495 168V167.26L74.6895 166.8V154.4L71.2695 156.44V155.48L75.5295 152.98H76.7895V166.8L78.8295 167.26V168H72.7495ZM85.6073 158.1C86.794 158.1 87.814 158.58 88.6673 159.54C89.534 160.5 89.9673 161.687 89.9673 163.1C89.9673 164.5 89.5473 165.707 88.7073 166.72C87.8673 167.72 86.5673 168.22 84.8073 168.22C83.954 168.22 83.1607 168.087 82.4273 167.82C81.694 167.54 81.1273 167.16 80.7273 166.68V163.9H81.7473L82.5873 166.62C83.2273 167.113 83.974 167.36 84.8273 167.36C85.6807 167.36 86.4073 166.987 87.0073 166.24C87.6073 165.48 87.9073 164.527 87.9073 163.38C87.9073 162.22 87.594 161.267 86.9673 160.52C86.3407 159.76 85.6073 159.38 84.7673 159.38C83.634 159.38 82.734 160.067 82.0673 161.44H80.8273L81.7873 153H88.8273V154.68H82.4873L81.8273 160.62C82.2407 159.7 82.7873 159.053 83.4673 158.68C84.1607 158.293 84.874 158.1 85.6073 158.1ZM97.893 162.08H112.853V163.44H97.893V162.08ZM126.206 159.16C127.593 159.307 128.646 159.773 129.366 160.56C130.086 161.347 130.446 162.427 130.446 163.8C130.446 165.173 129.926 166.267 128.886 167.08C127.859 167.893 126.619 168.3 125.166 168.3C123.419 168.3 121.959 167.733 120.786 166.6V163.86H121.806L122.766 166.54C123.579 167.26 124.433 167.62 125.326 167.62C126.219 167.62 126.946 167.293 127.506 166.64C128.079 165.973 128.379 164.993 128.406 163.7C128.326 162.3 127.999 161.3 127.426 160.7C126.866 160.087 126.073 159.78 125.046 159.78H123.746L127.786 153.9H122.606L121.846 157.14H120.826V153H130.086V153.72L126.206 159.16ZM137.797 153.62C136.81 153.62 136.043 154.187 135.497 155.32C134.95 156.44 134.677 158.1 134.677 160.3C134.677 165.02 135.723 167.38 137.817 167.38C138.83 167.38 139.61 166.813 140.157 165.68C140.717 164.533 140.997 162.84 140.997 160.6C140.997 155.947 139.93 153.62 137.797 153.62ZM132.437 160.48C132.437 158.027 132.93 156.147 133.917 154.84C134.917 153.52 136.217 152.86 137.817 152.86C139.417 152.86 140.71 153.52 141.697 154.84C142.697 156.16 143.197 158.053 143.197 160.52C143.197 162.973 142.69 164.86 141.677 166.18C140.663 167.5 139.37 168.16 137.797 168.16C136.237 168.16 134.95 167.493 133.937 166.16C132.937 164.813 132.437 162.92 132.437 160.48ZM72.9442 187.16C74.3309 187.307 75.3842 187.773 76.1042 188.56C76.8242 189.347 77.1842 190.427 77.1842 191.8C77.1842 193.173 76.6642 194.267 75.6242 195.08C74.5976 195.893 73.3576 196.3 71.9042 196.3C70.1576 196.3 68.6976 195.733 67.5242 194.6V191.86H68.5442L69.5042 194.54C70.3176 195.26 71.1709 195.62 72.0642 195.62C72.9576 195.62 73.6842 195.293 74.2442 194.64C74.8176 193.973 75.1176 192.993 75.1442 191.7C75.0642 190.3 74.7376 189.3 74.1642 188.7C73.6042 188.087 72.8109 187.78 71.7842 187.78H70.4842L74.5242 181.9H69.3442L68.5842 185.14H67.5642V181H76.8242V181.72L72.9442 187.16ZM84.535 181.62C83.5483 181.62 82.7817 182.187 82.235 183.32C81.6883 184.44 81.415 186.1 81.415 188.3C81.415 193.02 82.4617 195.38 84.555 195.38C85.5683 195.38 86.3483 194.813 86.895 193.68C87.455 192.533 87.735 190.84 87.735 188.6C87.735 183.947 86.6683 181.62 84.535 181.62ZM79.175 188.48C79.175 186.027 79.6683 184.147 80.655 182.84C81.655 181.52 82.955 180.86 84.555 180.86C86.155 180.86 87.4483 181.52 88.435 182.84C89.435 184.16 89.935 186.053 89.935 188.52C89.935 190.973 89.4283 192.86 88.415 194.18C87.4017 195.5 86.1083 196.16 84.535 196.16C82.975 196.16 81.6883 195.493 80.675 194.16C79.675 192.813 79.175 190.92 79.175 188.48ZM97.4633 190.08H112.423V191.44H97.4633V190.08ZM126.196 186.12C127.556 186.12 128.623 186.627 129.396 187.64C130.183 188.64 130.576 189.813 130.576 191.16C130.576 192.493 130.15 193.667 129.296 194.68C128.456 195.68 127.27 196.18 125.736 196.18C124.55 196.18 123.543 195.833 122.716 195.14C121.143 193.833 120.356 191.82 120.356 189.1C120.356 186.66 120.896 184.66 121.976 183.1C123.07 181.527 124.436 180.74 126.076 180.74C127.316 180.74 128.563 181.213 129.816 182.16V185.12H128.796L127.976 182.18C127.15 181.767 126.396 181.56 125.716 181.56C123.61 181.56 122.523 183.913 122.456 188.62C123.216 186.953 124.463 186.12 126.196 186.12ZM122.476 191.3V191.46C122.476 192.7 122.763 193.653 123.336 194.32C123.91 194.973 124.636 195.3 125.516 195.3C126.41 195.3 127.123 194.927 127.656 194.18C128.19 193.42 128.456 192.507 128.456 191.44C128.456 190.36 128.176 189.407 127.616 188.58C127.07 187.753 126.356 187.34 125.476 187.34C124.596 187.34 123.876 187.687 123.316 188.38C122.756 189.06 122.476 190.033 122.476 191.3ZM142.398 194.22V196H132.858C132.805 195.8 132.778 195.553 132.778 195.26C132.778 193.98 133.645 192.533 135.378 190.92C136.098 190.24 136.818 189.56 137.538 188.88C138.258 188.2 138.871 187.453 139.378 186.64C139.885 185.827 140.138 185.04 140.138 184.28C140.138 183.507 139.898 182.86 139.418 182.34C138.951 181.807 138.271 181.54 137.378 181.54C136.485 181.54 135.738 181.86 135.138 182.5L134.158 185.14H133.138V182.5C133.618 181.94 134.251 181.513 135.038 181.22C135.825 180.913 136.651 180.76 137.518 180.76C138.851 180.76 139.945 181.133 140.798 181.88C141.665 182.613 142.098 183.493 142.098 184.52C142.098 185.267 141.845 186.007 141.338 186.74C140.845 187.46 140.231 188.12 139.498 188.72C138.778 189.307 138.051 189.887 137.318 190.46C135.531 191.86 134.565 193.113 134.418 194.22H142.398Z" fill="white"/>
<circle cx="28.5" cy="47.5" r="12.5" fill="#F94F0D"/>
<circle cx="28.5" cy="74.5" r="12.5" fill="#EC672D"/>
<circle cx="28.5" cy="101.5" r="12.5" fill="#DE7E4D"/>
<circle cx="28.5" cy="182.5" r="12.5" fill="#9CF4EE"/>
<circle cx="28.5" cy="155.5" r="12.5" fill="#A9DCCE"/>
<circle cx="28.5" cy="128.5" r="12.5" fill="#B7C5AE"/>
</svg>
