<svg width="569" height="181" viewBox="0 0 569 181" fill="none" xmlns="http://www.w3.org/2000/svg">
<g clip-path="url(#clip0_52_6202)">
<path d="M472.769 114C473.778 114 474.584 114.81 474.584 115.794C474.584 116.777 473.778 117.588 472.769 117.588C471.759 117.588 470.953 116.778 470.953 115.794C470.953 114.81 471.759 114 472.769 114Z" fill="white" stroke="white" stroke-width="2"/>
<path d="M448.776 109.006C451.091 109.006 452.955 110.866 452.955 113.145C452.955 115.424 451.091 117.284 448.776 117.284C446.461 117.284 444.598 115.424 444.598 113.145C444.598 110.866 446.461 109.006 448.776 109.006Z" fill="white" stroke="white" stroke-width="2"/>
<path d="M419.002 104.191C422.651 104.191 425.597 107.125 425.597 110.729C425.597 114.332 422.651 117.266 419.002 117.266C415.352 117.266 412.406 114.332 412.406 110.729C412.406 107.125 415.352 104.191 419.002 104.191Z" fill="white" stroke="white" stroke-width="2"/>
<path d="M383.702 98C389.068 98 393.405 102.315 393.405 107.621C393.405 112.928 389.068 117.243 383.702 117.243C378.337 117.243 374 112.928 374 107.621C374 102.315 378.337 98.0002 383.702 98Z" fill="white" stroke="white" stroke-width="2"/>
<path d="M403.5 109.5V120.537" stroke="white" stroke-linecap="round"/>
<path d="M435.5 112.939V120.538" stroke="white" stroke-linecap="round"/>
<path d="M462.5 115.679V120.526" stroke="white" stroke-linecap="round"/>
<path d="M483.5 117.679V120.806" stroke="white" stroke-linecap="round"/>
<path d="M462.814 132.289H462.394C458.764 132.289 458.414 130.679 458.414 129.999V129.889H461.224C461.254 130.019 461.404 130.369 462.634 130.369C463.754 130.369 464.084 130.019 464.084 129.619V129.569C464.084 129.149 463.754 128.849 462.634 128.849C461.424 128.849 461.244 129.189 461.214 129.309H458.534V124.739H466.254V126.609H461.194V127.839C461.304 127.729 461.944 127.259 463.474 127.259H463.594C466.224 127.259 466.764 128.529 466.764 129.579V129.699C466.764 130.729 466.214 132.289 462.814 132.289Z" fill="white"/>
<path d="M429.644 127.57H427.814V125.81C429.404 125.81 429.944 125.48 430.284 124.56H432.324V132H429.644V127.57ZM438.253 132.11H437.833C434.203 132.11 433.853 130.5 433.853 129.82V129.71H436.663C436.693 129.84 436.843 130.19 438.073 130.19C439.193 130.19 439.523 129.84 439.523 129.44V129.39C439.523 128.97 439.193 128.67 438.073 128.67C436.863 128.67 436.683 129.01 436.653 129.13H433.973V124.56H441.693V126.43H436.633V127.66C436.743 127.55 437.383 127.08 438.913 127.08H439.033C441.663 127.08 442.203 128.35 442.203 129.4V129.52C442.203 130.55 441.653 132.11 438.253 132.11Z" fill="white"/>
<path d="M398.252 132.11H397.742C394.052 132.11 393.612 130.32 393.612 129.51V129.37H396.362C396.392 129.6 396.502 130.19 398.042 130.19C399.562 130.19 399.732 129.79 399.732 129.5V129.48C399.732 129.21 399.602 128.99 398.882 128.99H396.692V127.3H398.872C399.512 127.3 399.632 127.07 399.632 126.86V126.85C399.632 126.58 399.532 126.26 397.982 126.26C396.462 126.26 396.432 126.77 396.402 126.93H393.712V126.81C393.712 126.1 394.062 124.45 397.632 124.45H398.222C401.792 124.45 402.292 125.51 402.292 126.34V126.41C402.292 127.2 401.682 127.59 401.072 127.75C401.792 127.91 402.552 128.39 402.552 129.47V129.53C402.552 130.66 401.952 132.11 398.252 132.11ZM408.196 124.43H408.636C412.556 124.43 413.246 126.68 413.246 128.11V128.41C413.246 129.81 412.556 132.13 408.636 132.13H408.196C404.296 132.13 403.576 129.81 403.576 128.41V128.11C403.576 126.67 404.296 124.43 408.196 124.43ZM410.426 128.29V128.18C410.426 127.57 410.166 126.45 408.406 126.45C406.636 126.45 406.396 127.57 406.396 128.18V128.29C406.396 128.93 406.686 130.07 408.416 130.07C410.146 130.07 410.426 128.93 410.426 128.29Z" fill="white"/>
<path d="M482.784 124.609H483.224C487.144 124.609 487.834 126.859 487.834 128.289V128.589C487.834 129.989 487.144 132.309 483.224 132.309H482.784C478.884 132.309 478.164 129.989 478.164 128.589V128.289C478.164 126.849 478.884 124.609 482.784 124.609ZM485.014 128.469V128.359C485.014 127.749 484.754 126.629 482.994 126.629C481.224 126.629 480.984 127.749 480.984 128.359V128.469C480.984 129.109 481.274 130.249 483.004 130.249C484.734 130.249 485.014 129.109 485.014 128.469Z" fill="white"/>
<path d="M53.5601 52.9997L48.6481 47.6877V52.9997H44.3441V41.0957H48.6481V45.7037L53.5441 41.0957H58.6161L52.8241 46.4717L59.0161 52.9997H53.5601ZM64.4529 50.9517C65.9089 50.9517 66.4849 50.0557 66.4849 49.3517V48.9197C66.1809 48.9837 65.5569 49.0957 64.8689 49.2077C63.5409 49.4157 63.2209 49.6397 63.2209 50.1517V50.1837C63.2209 50.6477 63.6209 50.9517 64.4529 50.9517ZM66.5969 51.8797C66.3089 52.2157 65.3169 53.1917 63.1249 53.1917H62.8529C60.3569 53.1917 59.1569 51.9757 59.1569 50.3117V50.2317C59.1569 48.5677 60.1809 47.7197 63.3329 47.5117L65.8609 47.3677C66.3249 47.3197 66.4849 47.1757 66.4849 46.8557V46.8397C66.4849 46.4557 66.2929 46.1197 64.9969 46.1197H64.9329C63.5409 46.1197 63.4289 46.7277 63.4289 46.9517H59.3809V46.9357C59.3809 45.7357 59.8769 43.8477 64.6609 43.8477H65.2049C70.0849 43.8477 70.5169 45.5597 70.5169 46.9517V49.7037C70.5169 50.0237 70.6129 50.1677 70.9489 50.1677H71.4449V52.9997H68.1169C67.2209 52.9997 66.7569 52.3757 66.5969 51.8797ZM80.0035 52.9997L77.1395 49.0957V52.9997H73.0275V44.0717H77.1395V47.4157L79.7475 44.0717H84.2595L80.9315 48.0717L84.6595 52.9997H80.0035ZM98.5267 48.0397L94.7507 52.9997H90.5587V44.0717H94.6707V49.0797L98.4467 44.0717H102.639V52.9997H98.5267V48.0397ZM116.805 50.4077V50.5037C116.805 52.2797 115.029 53.2397 110.997 53.2397H110.709C106.245 53.2397 104.533 51.8317 104.533 49.9277V49.7997H108.869C108.917 50.7437 109.989 50.9677 110.869 50.9677C111.877 50.9677 112.517 50.7277 112.517 50.0877V50.0717C112.517 49.5117 112.101 49.3677 111.221 49.3677H109.205V47.4317H111.221C111.892 47.4317 112.229 47.2077 112.229 46.7597V46.7437C112.229 46.3117 111.812 46.0717 110.725 46.0717C109.717 46.0717 108.965 46.3437 108.901 46.9197H104.613V46.8717C104.613 44.8237 106.709 43.8317 110.613 43.8317H110.869C114.629 43.8317 116.517 44.6477 116.517 46.2637V46.3277C116.517 47.6077 115.269 48.1357 114.549 48.3117C115.445 48.5197 116.805 48.9837 116.805 50.4077ZM122.491 47.4797V52.9997H118.699V44.0717H124.731L126.811 48.3757L128.891 44.0717H134.219V52.9997H130.203V47.4797L127.547 52.9997H125.163L122.491 47.4797ZM142.352 46.1037C141.024 46.1037 140.528 46.5837 140.336 47.4637H144.32C144.32 46.7597 143.936 46.1037 142.352 46.1037ZM144.336 50.0877H148.656C148.592 51.1437 147.856 53.2237 142.8 53.2237H142.096C137.072 53.2237 136.048 50.6477 136.048 48.6477V48.4237C136.048 46.3757 137.104 43.8477 141.92 43.8477H142.64C147.76 43.8477 148.688 46.3597 148.688 48.9197V49.2557H140.304C140.48 50.2157 141.088 50.7757 142.576 50.7757C144.016 50.7757 144.24 50.2317 144.336 50.0877ZM154.671 52.9997H150.559V44.0717H154.671V47.1597H158.399V44.0717H162.511V52.9997H158.399V49.7997H154.671V52.9997ZM172.808 48.0397L169.032 52.9997H164.84V44.0717H168.952V49.0797L172.728 44.0717H176.92V52.9997H172.808V48.0397ZM186.67 52.9997V46.7117H183.982C183.982 48.7597 183.902 50.1997 183.598 51.0157C183.262 51.9117 182.686 52.9997 180.19 52.9997H178.654V50.3757H178.846C179.406 50.3757 179.806 50.1837 179.982 49.4637C180.158 48.6957 180.174 47.8477 180.174 44.0717H190.782V52.9997H186.67ZM197.937 50.9517C199.393 50.9517 199.969 50.0557 199.969 49.3517V48.9197C199.665 48.9837 199.041 49.0957 198.353 49.2077C197.025 49.4157 196.705 49.6397 196.705 50.1517V50.1837C196.705 50.6477 197.105 50.9517 197.937 50.9517ZM200.081 51.8797C199.793 52.2157 198.801 53.1917 196.609 53.1917H196.337C193.841 53.1917 192.641 51.9757 192.641 50.3117V50.2317C192.641 48.5677 193.665 47.7197 196.817 47.5117L199.345 47.3677C199.809 47.3197 199.969 47.1757 199.969 46.8557V46.8397C199.969 46.4557 199.777 46.1197 198.481 46.1197H198.417C197.025 46.1197 196.913 46.7277 196.913 46.9517H192.865V46.9357C192.865 45.7357 193.361 43.8477 198.145 43.8477H198.689C203.569 43.8477 204.001 45.5597 204.001 46.9517V49.7037C204.001 50.0237 204.097 50.1677 204.433 50.1677H204.929V52.9997H201.601C200.705 52.9997 200.241 52.3757 200.081 51.8797ZM218.416 49.2877V49.3037C218.416 50.6477 217.84 53.2397 212.688 53.2397H211.904C206.832 53.2397 206.048 50.4077 206.048 48.5677V48.3437C206.048 46.5357 206.896 43.8317 211.888 43.8317H212.512C217.92 43.8317 218.416 46.3917 218.416 47.6077V47.6237H214.128C214.08 47.3197 213.824 46.4717 212.336 46.4717H212.208C210.752 46.4717 210.336 47.4637 210.336 48.4397V48.4557C210.336 49.4637 210.784 50.5517 212.224 50.5517H212.352C213.856 50.5517 214.08 49.5757 214.128 49.2877H218.416ZM220.293 52.9997V44.0717H224.405V46.3597H227.909C230.949 46.3597 232.133 47.7677 232.133 49.5437V49.7357C232.133 51.7037 230.949 52.9997 227.909 52.9997H220.293ZM224.405 50.5197H226.757C227.317 50.5197 227.861 50.3597 227.861 49.6717V49.6237C227.861 48.9837 227.317 48.8237 226.757 48.8237H224.405V50.5197ZM245.708 44.0717H249.82V52.9997H245.708V50.0237C245.02 50.1357 244.14 50.1997 243.132 50.1997C239.356 50.1997 238.14 49.0637 238.14 46.0557V44.0717H242.252V45.7517C242.252 47.1597 242.812 47.4637 244.3 47.4637C244.812 47.4637 245.34 47.4157 245.708 47.3517V44.0717ZM260.12 48.0397L256.344 52.9997H252.152V44.0717H256.264V49.0797L260.04 44.0717H264.232V52.9997H260.12V48.0397ZM278.478 49.2877V49.3037C278.478 50.6477 277.902 53.2397 272.75 53.2397H271.966C266.894 53.2397 266.11 50.4077 266.11 48.5677V48.3437C266.11 46.5357 266.958 43.8317 271.95 43.8317H272.574C277.982 43.8317 278.478 46.3917 278.478 47.6077V47.6237H274.19C274.142 47.3197 273.886 46.4717 272.398 46.4717H272.27C270.814 46.4717 270.398 47.4637 270.398 48.4397V48.4557C270.398 49.4637 270.846 50.5517 272.286 50.5517H272.414C273.918 50.5517 274.142 49.5757 274.19 49.2877H278.478ZM287.685 52.9997V46.7117H284.997C284.997 48.7597 284.917 50.1997 284.613 51.0157C284.277 51.9117 283.701 52.9997 281.205 52.9997H279.669V50.3757H279.861C280.421 50.3757 280.821 50.1837 280.997 49.4637C281.173 48.6957 281.189 47.8477 281.189 44.0717H291.797V52.9997H287.685ZM299.977 46.1037C298.649 46.1037 298.153 46.5837 297.961 47.4637H301.945C301.945 46.7597 301.561 46.1037 299.977 46.1037ZM301.961 50.0877H306.281C306.217 51.1437 305.481 53.2237 300.425 53.2237H299.721C294.697 53.2237 293.673 50.6477 293.673 48.6477V48.4237C293.673 46.3757 294.729 43.8477 299.545 43.8477H300.265C305.385 43.8477 306.313 46.3597 306.313 48.9197V49.2557H297.929C298.105 50.2157 298.713 50.7757 300.201 50.7757C301.641 50.7757 301.865 50.2317 301.961 50.0877ZM312.296 52.9997H308.184V44.0717H312.296V47.1597H316.024V44.0717H320.136V52.9997H316.024V49.7997H312.296V52.9997ZM326.577 52.9997H322.465V44.0717H326.577V47.1597H330.305V44.0717H334.417V52.9997H330.305V49.7997H326.577V52.9997ZM342.922 53.2397H342.394C336.906 53.2397 336.282 50.2797 336.282 48.6797V48.4557C336.282 46.8877 336.922 43.8317 342.378 43.8317H342.938C348.602 43.8317 349.05 46.8877 349.05 48.4397V48.6957C349.05 50.2797 348.618 53.2397 342.922 53.2397ZM342.602 50.5517H342.73C344.33 50.5517 344.762 49.3197 344.762 48.5037C344.762 47.6077 344.33 46.4717 342.73 46.4717H342.602C340.954 46.4717 340.57 47.6077 340.57 48.5037C340.57 49.3357 340.938 50.5517 342.602 50.5517ZM362.822 49.2877V49.3037C362.822 50.6477 362.246 53.2397 357.094 53.2397H356.31C351.238 53.2397 350.454 50.4077 350.454 48.5677V48.3437C350.454 46.5357 351.302 43.8317 356.294 43.8317H356.918C362.326 43.8317 362.822 46.3917 362.822 47.6077V47.6237H358.534C358.486 47.3197 358.23 46.4717 356.742 46.4717H356.614C355.158 46.4717 354.742 47.4637 354.742 48.4397V48.4557C354.742 49.4637 355.19 50.5517 356.63 50.5517H356.758C358.262 50.5517 358.486 49.5757 358.534 49.2877H362.822ZM367.211 52.9997V46.7117H363.883V44.0717H374.667V46.7117H371.323V52.9997H367.211ZM376.184 52.9997V44.0717H380.296V46.3597H383.8C386.84 46.3597 388.024 47.7677 388.024 49.5437V49.7357C388.024 51.7037 386.84 52.9997 383.8 52.9997H376.184ZM380.296 50.5197H382.648C383.208 50.5197 383.752 50.3597 383.752 49.6717V49.6237C383.752 48.9837 383.208 48.8237 382.648 48.8237H380.296V50.5197ZM398.686 52.9997H394.574V44.0717H398.686V47.1597H402.414V44.0717H406.526V52.9997H402.414V49.7997H398.686V52.9997ZM413.672 50.9517C415.128 50.9517 415.704 50.0557 415.704 49.3517V48.9197C415.4 48.9837 414.776 49.0957 414.088 49.2077C412.76 49.4157 412.44 49.6397 412.44 50.1517V50.1837C412.44 50.6477 412.84 50.9517 413.672 50.9517ZM415.816 51.8797C415.528 52.2157 414.536 53.1917 412.344 53.1917H412.072C409.576 53.1917 408.376 51.9757 408.376 50.3117V50.2317C408.376 48.5677 409.4 47.7197 412.552 47.5117L415.08 47.3677C415.544 47.3197 415.704 47.1757 415.704 46.8557V46.8397C415.704 46.4557 415.512 46.1197 414.216 46.1197H414.152C412.76 46.1197 412.648 46.7277 412.648 46.9517H408.6V46.9357C408.6 45.7357 409.096 43.8477 413.88 43.8477H414.424C419.304 43.8477 419.736 45.5597 419.736 46.9517V49.7037C419.736 50.0237 419.832 50.1677 420.168 50.1677H420.664V52.9997H417.336C416.44 52.9997 415.976 52.3757 415.816 51.8797ZM434.15 49.2877V49.3037C434.15 50.6477 433.574 53.2397 428.422 53.2397H427.638C422.566 53.2397 421.782 50.4077 421.782 48.5677V48.3437C421.782 46.5357 422.63 43.8317 427.622 43.8317H428.246C433.654 43.8317 434.15 46.3917 434.15 47.6077V47.6237H429.862C429.814 47.3197 429.558 46.4717 428.07 46.4717H427.942C426.486 46.4717 426.07 47.4637 426.07 48.4397V48.4557C426.07 49.4637 426.518 50.5517 427.958 50.5517H428.086C429.59 50.5517 429.814 49.5757 429.862 49.2877H434.15ZM441.867 46.1037C440.539 46.1037 440.043 46.5837 439.851 47.4637H443.835C443.835 46.7597 443.451 46.1037 441.867 46.1037ZM443.851 50.0877H448.171C448.107 51.1437 447.371 53.2237 442.315 53.2237H441.611C436.587 53.2237 435.563 50.6477 435.563 48.6477V48.4237C435.563 46.3757 436.619 43.8477 441.435 43.8477H442.155C447.275 43.8477 448.203 46.3597 448.203 48.9197V49.2557H439.819C439.995 50.2157 440.603 50.7757 442.091 50.7757C443.531 50.7757 443.755 50.2317 443.851 50.0877ZM457.326 52.9997V46.7117H454.638C454.638 48.7597 454.558 50.1997 454.254 51.0157C453.918 51.9117 453.342 52.9997 450.846 52.9997H449.31V50.3757H449.502C450.062 50.3757 450.462 50.1837 450.638 49.4637C450.814 48.6957 450.83 47.8477 450.83 44.0717H461.438V52.9997H457.326ZM469.617 46.1037C468.289 46.1037 467.793 46.5837 467.601 47.4637H471.585C471.585 46.7597 471.201 46.1037 469.617 46.1037ZM471.601 50.0877H475.921C475.857 51.1437 475.121 53.2237 470.065 53.2237H469.361C464.337 53.2237 463.313 50.6477 463.313 48.6477V48.4237C463.313 46.3757 464.369 43.8477 469.185 43.8477H469.905C475.025 43.8477 475.953 46.3597 475.953 48.9197V49.2557H467.569C467.745 50.2157 468.353 50.7757 469.841 50.7757C471.281 50.7757 471.505 50.2317 471.601 50.0877ZM481.936 52.9997H477.824V44.0717H481.936V47.1597H485.664V44.0717H489.776V52.9997H485.664V49.7997H481.936V52.9997ZM500.074 48.0397L496.298 52.9997H492.106V44.0717H496.218V49.0797L499.994 44.0717H504.186V52.9997H500.074V48.0397ZM514.479 50.3117H512.735L510.623 52.9997H506.015L508.575 49.7677C507.231 49.3997 506.447 48.5037 506.447 47.1757V47.0637C506.447 45.3357 507.615 44.0717 510.351 44.0717H518.591V52.9997H514.479V50.3117ZM514.479 46.3917H511.775C511.199 46.3917 510.687 46.5997 510.687 47.2237V47.2557C510.687 47.8797 511.199 48.1037 511.775 48.1037H514.479V46.3917ZM56.0721 69.2877V69.3037C56.0721 70.6477 55.4961 73.2397 50.3441 73.2397H49.5601C44.4881 73.2397 43.7041 70.4077 43.7041 68.5677V68.3437C43.7041 66.5357 44.5521 63.8317 49.5441 63.8317H50.1681C55.5761 63.8317 56.0721 66.3917 56.0721 67.6077V67.6237H51.7841C51.7361 67.3197 51.4801 66.4717 49.9921 66.4717H49.8641C48.4081 66.4717 47.9921 67.4637 47.9921 68.4397V68.4557C47.9921 69.4637 48.4401 70.5517 49.8801 70.5517H50.0081C51.5121 70.5517 51.7361 69.5757 51.7841 69.2877H56.0721ZM76.3135 72.9997H62.5055V70.9197C62.5055 69.1277 63.0975 67.4317 67.7695 66.2797L69.4975 65.8637C71.3055 65.4797 71.5935 65.1917 71.5935 64.7437V64.7117C71.5935 64.2157 71.2735 63.7677 69.4335 63.7677C67.2895 63.7677 67.1775 64.7757 67.1295 65.2877H62.7135V65.1757C62.7135 63.5917 63.3855 60.9357 68.9695 60.9357H69.8495C74.7615 60.9357 76.1055 62.5517 76.1055 64.7277V64.8557C76.1055 67.0637 74.4415 67.9437 70.5535 68.5037C69.9295 68.5837 69.2735 68.6957 68.7455 68.8077C66.4415 69.1917 66.0895 69.5597 66.0895 69.8157H76.3135V72.9997ZM85.3811 60.8877H86.0851C92.3571 60.8877 93.4611 64.4877 93.4611 66.7757V67.2557C93.4611 69.4957 92.3571 73.2077 86.0851 73.2077H85.3811C79.1411 73.2077 77.9891 69.4957 77.9891 67.2557V66.7757C77.9891 64.4717 79.1411 60.8877 85.3811 60.8877ZM88.9491 67.0637V66.8877C88.9491 65.9117 88.5331 64.1197 85.7171 64.1197C82.8851 64.1197 82.5011 65.9117 82.5011 66.8877V67.0637C82.5011 68.0877 82.9651 69.9117 85.7331 69.9117C88.5011 69.9117 88.9491 68.0877 88.9491 67.0637ZM97.9621 65.9117H95.0341V63.0957C97.5781 63.0957 98.4421 62.5677 98.9861 61.0957H102.25V72.9997H97.9621V65.9117ZM111.912 60.8877H112.616C118.888 60.8877 119.992 64.4877 119.992 66.7757V67.2557C119.992 69.4957 118.888 73.2077 112.616 73.2077H111.912C105.672 73.2077 104.52 69.4957 104.52 67.2557V66.7757C104.52 64.4717 105.672 60.8877 111.912 60.8877ZM115.48 67.0637V66.8877C115.48 65.9117 115.064 64.1197 112.248 64.1197C109.416 64.1197 109.032 65.9117 109.032 66.8877V67.0637C109.032 68.0877 109.496 69.9117 112.264 69.9117C115.032 69.9117 115.48 68.0877 115.48 67.0637ZM126.152 74.8877V70.3597H127.304C127.816 69.2237 127.96 66.5997 127.96 64.0717H138.76V70.3597H140.36V74.8877H136.616V72.9997H129.896V74.8877H126.152ZM131.032 70.3597H134.648V66.6637H131.592C131.592 67.8957 131.32 69.4317 131.032 70.3597ZM148.016 73.2397H147.488C142 73.2397 141.376 70.2797 141.376 68.6797V68.4557C141.376 66.8877 142.016 63.8317 147.472 63.8317H148.032C153.696 63.8317 154.144 66.8877 154.144 68.4397V68.6957C154.144 70.2797 153.712 73.2397 148.016 73.2397ZM147.696 70.5517H147.824C149.424 70.5517 149.856 69.3197 149.856 68.5037C149.856 67.6077 149.424 66.4717 147.824 66.4717H147.696C146.048 66.4717 145.664 67.6077 145.664 68.5037C145.664 69.3357 146.032 70.5517 147.696 70.5517ZM174.376 72.9997H160.568V70.9197C160.568 69.1277 161.16 67.4317 165.832 66.2797L167.56 65.8637C169.368 65.4797 169.656 65.1917 169.656 64.7437V64.7117C169.656 64.2157 169.336 63.7677 167.496 63.7677C165.352 63.7677 165.24 64.7757 165.192 65.2877H160.776V65.1757C160.776 63.5917 161.448 60.9357 167.032 60.9357H167.912C172.824 60.9357 174.168 62.5517 174.168 64.7277V64.8557C174.168 67.0637 172.504 67.9437 168.616 68.5037C167.992 68.5837 167.336 68.6957 166.808 68.8077C164.504 69.1917 164.152 69.5597 164.152 69.8157H174.376V72.9997ZM183.444 60.8877H184.148C190.42 60.8877 191.524 64.4877 191.524 66.7757V67.2557C191.524 69.4957 190.42 73.2077 184.148 73.2077H183.444C177.204 73.2077 176.052 69.4957 176.052 67.2557V66.7757C176.052 64.4717 177.204 60.8877 183.444 60.8877ZM187.012 67.0637V66.8877C187.012 65.9117 186.596 64.1197 183.78 64.1197C180.948 64.1197 180.564 65.9117 180.564 66.8877V67.0637C180.564 68.0877 181.028 69.9117 183.796 69.9117C186.564 69.9117 187.012 68.0877 187.012 67.0637ZM207.095 72.9997H193.287V70.9197C193.287 69.1277 193.879 67.4317 198.551 66.2797L200.279 65.8637C202.087 65.4797 202.375 65.1917 202.375 64.7437V64.7117C202.375 64.2157 202.055 63.7677 200.215 63.7677C198.071 63.7677 197.959 64.7757 197.911 65.2877H193.495V65.1757C193.495 63.5917 194.167 60.9357 199.751 60.9357H200.631C205.543 60.9357 206.887 62.5517 206.887 64.7277V64.8557C206.887 67.0637 205.223 67.9437 201.335 68.5037C200.711 68.5837 200.055 68.6957 199.527 68.8077C197.223 69.1917 196.871 69.5597 196.871 69.8157H207.095V72.9997ZM211.54 65.9117H208.612V63.0957C211.156 63.0957 212.02 62.5677 212.564 61.0957H215.828V72.9997H211.54V65.9117ZM226.159 67.5117C226.159 70.5197 227.167 73.0957 228.319 75.0957H226.095C224.607 73.5277 222.879 70.9517 222.879 67.5117C222.879 64.1357 224.591 61.5757 226.095 60.0717H228.319C227.087 61.9917 226.159 64.5197 226.159 67.5117ZM233.842 67.8637H233.538C229.89 67.8637 229.218 65.8477 229.218 64.5037V64.2477C229.218 62.9037 229.89 60.9677 233.538 60.9677H233.842C237.506 60.9677 238.226 62.9037 238.226 64.2477V64.5037C238.226 65.8477 237.506 67.8637 233.842 67.8637ZM244.018 61.0957H247.234L235.986 72.9997H232.754L244.018 61.0957ZM235.218 64.3917V64.3117C235.218 63.5277 234.722 62.9997 233.714 62.9997C232.706 62.9997 232.226 63.5277 232.226 64.3437V64.3917C232.226 65.1757 232.706 65.7357 233.714 65.7357C234.722 65.7357 235.218 65.1757 235.218 64.3917ZM246.45 73.1277H246.146C242.498 73.1277 241.826 71.0797 241.826 69.7517V69.5117C241.826 68.1837 242.498 66.2317 246.146 66.2317H246.45C250.114 66.2317 250.818 68.1837 250.818 69.5117V69.7517C250.818 71.0797 250.114 73.1277 246.45 73.1277ZM246.322 68.2637C245.298 68.2637 244.834 68.7757 244.834 69.5917V69.6397C244.834 70.4557 245.314 70.9997 246.322 70.9997C247.33 70.9997 247.826 70.4557 247.826 69.6397V69.5757C247.826 68.7917 247.33 68.2637 246.322 68.2637ZM253.87 67.5117C253.87 64.5197 252.942 61.9917 251.71 60.0717H253.934C255.47 61.5597 257.166 64.1357 257.166 67.5117C257.166 70.9677 255.39 73.5117 253.934 75.0957H251.71C252.862 73.0957 253.87 70.5197 253.87 67.5117Z" fill="white"/>
<g filter="url(#filter0_f_52_6202)">
<path d="M169.75 95H62.25C51.6185 95 43 103.619 43 114.25C43 124.881 51.6185 133.5 62.25 133.5H169.75C180.381 133.5 189 124.881 189 114.25C189 103.619 180.381 95 169.75 95Z" fill="#5BC1BA"/>
</g>
<path d="M169.75 95H62.25C51.6185 95 43 103.619 43 114.25C43 124.881 51.6185 133.5 62.25 133.5H169.75C180.381 133.5 189 124.881 189 114.25C189 103.619 180.381 95 169.75 95Z" fill="#5BC1BA"/>
<g filter="url(#filter1_f_52_6202)">
<path d="M336.75 95H229.25C218.619 95 210 103.619 210 114.25C210 124.881 218.619 133.5 229.25 133.5H336.75C347.381 133.5 356 124.881 356 114.25C356 103.619 347.381 95 336.75 95Z" fill="#D44006"/>
</g>
<path d="M336.75 95H229.25C218.619 95 210 103.619 210 114.25C210 124.881 218.619 133.5 229.25 133.5H336.75C347.381 133.5 356 124.881 356 114.25C356 103.619 347.381 95 336.75 95Z" fill="#D44006"/>
<path d="M64.9534 118V106.096H74.8734C78.2814 106.096 79.3214 107.392 79.3214 108.88V108.992C79.3214 110.592 77.9134 111.28 77.0174 111.408C78.2494 111.584 79.9774 112.288 79.9774 114.336V114.496C79.9774 116.464 78.7774 118 74.8894 118H64.9534ZM73.6734 108.88H69.2734V110.608H73.6734C74.5854 110.608 74.8734 110.256 74.8734 109.76V109.728C74.8734 109.216 74.5694 108.88 73.6734 108.88ZM73.9934 113.184H69.2734V115.088H73.9934C75.1454 115.088 75.3374 114.576 75.3374 114.128V114.064C75.3374 113.6 75.1454 113.184 73.9934 113.184ZM81.8399 118V109.072H85.9519V111.36H89.4559C92.4959 111.36 93.6799 112.768 93.6799 114.544V114.736C93.6799 116.704 92.4959 118 89.4559 118H81.8399ZM85.9519 115.52H88.3039C88.8639 115.52 89.4079 115.36 89.4079 114.672V114.624C89.4079 113.984 88.8639 113.824 88.3039 113.824H85.9519V115.52ZM98.6719 109.072V118H94.5599V109.072H98.6719ZM109.236 113.584V113.504C109.236 112.672 108.788 111.568 107.22 111.568H107.156C105.572 111.568 105.108 112.672 105.108 113.488V113.584C105.108 114.448 105.572 115.488 107.156 115.488H107.22C108.788 115.488 109.236 114.416 109.236 113.584ZM101.012 121.024V109.072H105.124V110.16C105.556 109.728 106.628 108.896 108.724 108.896H108.852C112.436 108.896 113.54 111.12 113.54 113.36V113.632C113.54 115.696 112.404 118.176 108.692 118.176H108.548C106.484 118.176 105.492 117.328 105.124 117.008V121.024H101.012ZM121.61 118.24H121.082C115.594 118.24 114.97 115.28 114.97 113.68V113.456C114.97 111.888 115.61 108.832 121.066 108.832H121.626C127.29 108.832 127.738 111.888 127.738 113.44V113.696C127.738 115.28 127.306 118.24 121.61 118.24ZM121.29 115.552H121.418C123.018 115.552 123.45 114.32 123.45 113.504C123.45 112.608 123.018 111.472 121.418 111.472H121.29C119.642 111.472 119.258 112.608 119.258 113.504C119.258 114.336 119.626 115.552 121.29 115.552ZM141.51 114.288V114.304C141.51 115.648 140.934 118.24 135.782 118.24H134.998C129.926 118.24 129.142 115.408 129.142 113.568V113.344C129.142 111.536 129.99 108.832 134.982 108.832H135.606C141.014 108.832 141.51 111.392 141.51 112.608V112.624H137.222C137.174 112.32 136.918 111.472 135.43 111.472H135.302C133.846 111.472 133.43 112.464 133.43 113.44V113.456C133.43 114.464 133.878 115.552 135.318 115.552H135.446C136.95 115.552 137.174 114.576 137.222 114.288H141.51ZM150.717 118V111.712H148.029C148.029 113.76 147.949 115.2 147.645 116.016C147.309 116.912 146.733 118 144.237 118H142.701V115.376H142.893C143.453 115.376 143.853 115.184 144.029 114.464C144.205 113.696 144.221 112.848 144.221 109.072H154.829V118H150.717ZM161.984 115.952C163.44 115.952 164.016 115.056 164.016 114.352V113.92C163.712 113.984 163.088 114.096 162.4 114.208C161.072 114.416 160.752 114.64 160.752 115.152V115.184C160.752 115.648 161.152 115.952 161.984 115.952ZM164.128 116.88C163.84 117.216 162.848 118.192 160.656 118.192H160.384C157.888 118.192 156.688 116.976 156.688 115.312V115.232C156.688 113.568 157.712 112.72 160.864 112.512L163.392 112.368C163.856 112.32 164.016 112.176 164.016 111.856V111.84C164.016 111.456 163.824 111.12 162.528 111.12H162.464C161.072 111.12 160.96 111.728 160.96 111.952H156.912V111.936C156.912 110.736 157.408 108.848 162.192 108.848H162.736C167.616 108.848 168.048 110.56 168.048 111.952V114.704C168.048 115.024 168.144 115.168 168.48 115.168H168.976V118H165.648C164.752 118 164.288 117.376 164.128 116.88Z" fill="white"/>
<path d="M228.187 118.692H227.467C221.291 118.692 220.011 115.092 220.011 112.756V112.276C220.011 109.924 221.259 106.404 227.467 106.404H228.187C234.427 106.404 235.563 109.3 235.563 111.3V111.428H231.099C231.051 111.14 230.795 109.636 227.835 109.636C225.067 109.636 224.523 111.252 224.523 112.388V112.58C224.523 113.732 225.099 115.412 227.851 115.412C230.795 115.412 231.051 113.892 231.099 113.636H235.563V113.764C235.563 115.62 234.459 118.692 228.187 118.692ZM241.647 118.5H237.535V109.572H241.647V112.66H245.375V109.572H249.487V118.5H245.375V115.3H241.647V118.5ZM259.784 113.54L256.008 118.5H251.816V109.572H255.928V114.58L259.704 109.572H263.896V118.5H259.784V113.54ZM278.062 115.908V116.004C278.062 117.78 276.286 118.74 272.254 118.74H271.966C267.502 118.74 265.79 117.332 265.79 115.428V115.3H270.126C270.174 116.244 271.246 116.468 272.126 116.468C273.134 116.468 273.774 116.228 273.774 115.588V115.572C273.774 115.012 273.358 114.868 272.478 114.868H270.462V112.932H272.478C273.15 112.932 273.486 112.708 273.486 112.26V112.244C273.486 111.812 273.07 111.572 271.982 111.572C270.974 111.572 270.222 111.844 270.158 112.42H265.87V112.372C265.87 110.324 267.966 109.332 271.87 109.332H272.126C275.886 109.332 277.774 110.148 277.774 111.764V111.828C277.774 113.108 276.526 113.636 275.806 113.812C276.702 114.02 278.062 114.484 278.062 115.908ZM287.925 113.54L284.149 118.5H279.957V109.572H284.069V114.58L287.845 109.572H292.037V118.5H287.925V113.54ZM301.787 118.5V112.212H299.099C299.099 114.26 299.019 115.7 298.715 116.516C298.379 117.412 297.803 118.5 295.307 118.5H293.771V115.876H293.963C294.523 115.876 294.923 115.684 295.099 114.964C295.275 114.196 295.291 113.348 295.291 109.572H305.899V118.5H301.787ZM313.054 116.452C314.51 116.452 315.086 115.556 315.086 114.852V114.42C314.782 114.484 314.158 114.596 313.47 114.708C312.142 114.916 311.822 115.14 311.822 115.652V115.684C311.822 116.148 312.222 116.452 313.054 116.452ZM315.198 117.38C314.91 117.716 313.918 118.692 311.726 118.692H311.454C308.958 118.692 307.758 117.476 307.758 115.812V115.732C307.758 114.068 308.782 113.22 311.934 113.012L314.462 112.868C314.926 112.82 315.086 112.676 315.086 112.356V112.34C315.086 111.956 314.894 111.62 313.598 111.62H313.534C312.142 111.62 312.03 112.228 312.03 112.452H307.982V112.436C307.982 111.236 308.478 109.348 313.262 109.348H313.806C318.686 109.348 319.118 111.06 319.118 112.452V115.204C319.118 115.524 319.214 115.668 319.55 115.668H320.046V118.5H316.718C315.822 118.5 315.358 117.876 315.198 117.38ZM333.533 114.788V114.804C333.533 116.148 332.957 118.74 327.805 118.74H327.021C321.949 118.74 321.165 115.908 321.165 114.068V113.844C321.165 112.036 322.013 109.332 327.005 109.332H327.629C333.037 109.332 333.533 111.892 333.533 113.108V113.124H329.245C329.197 112.82 328.941 111.972 327.453 111.972H327.325C325.869 111.972 325.453 112.964 325.453 113.94V113.956C325.453 114.964 325.901 116.052 327.341 116.052H327.469C328.973 116.052 329.197 115.076 329.245 114.788H333.533ZM335.41 118.5V109.572H339.522V111.86H343.026C346.066 111.86 347.25 113.268 347.25 115.044V115.236C347.25 117.204 346.066 118.5 343.026 118.5H335.41ZM339.522 116.02H341.874C342.434 116.02 342.978 115.86 342.978 115.172V115.124C342.978 114.484 342.434 114.324 341.874 114.324H339.522V116.02Z" fill="white"/>
</g>
<defs>
<filter id="filter0_f_52_6202" x="32.2" y="84.2" width="167.6" height="60.1" filterUnits="userSpaceOnUse" color-interpolation-filters="sRGB">
<feFlood flood-opacity="0" result="BackgroundImageFix"/>
<feBlend mode="normal" in="SourceGraphic" in2="BackgroundImageFix" result="shape"/>
<feGaussianBlur stdDeviation="5.4" result="effect1_foregroundBlur_52_6202"/>
</filter>
<filter id="filter1_f_52_6202" x="199.2" y="84.2" width="167.6" height="60.1" filterUnits="userSpaceOnUse" color-interpolation-filters="sRGB">
<feFlood flood-opacity="0" result="BackgroundImageFix"/>
<feBlend mode="normal" in="SourceGraphic" in2="BackgroundImageFix" result="shape"/>
<feGaussianBlur stdDeviation="5.4" result="effect1_foregroundBlur_52_6202"/>
</filter>
<clipPath id="clip0_52_6202">
<rect width="569" height="181" fill="white"/>
</clipPath>
</defs>
</svg>
