<svg width="1541" height="674" viewBox="0 0 1541 674" fill="none" xmlns="http://www.w3.org/2000/svg">
<g clip-path="url(#clip0_42_5139)">
<path d="M1183.39 404.67C1191.93 404.67 1198.78 411.532 1198.78 419.89C1198.78 428.249 1191.93 435.114 1183.39 435.114C1174.84 435.114 1168 428.249 1168 419.89C1168 411.532 1174.84 404.67 1183.39 404.67Z" stroke="white" stroke-width="13.5341"/>
<path d="M1096.27 366.774C1114.95 366.774 1130.1 381.922 1130.1 400.61C1130.1 419.298 1114.95 434.445 1096.27 434.445C1077.58 434.445 1062.43 419.298 1062.43 400.61C1062.43 381.922 1077.58 366.774 1096.27 366.774Z" stroke="white" stroke-width="13.5341"/>
<path d="M971.751 328.879C1000.9 328.879 1024.53 352.51 1024.53 381.662C1024.53 410.815 1000.9 434.445 971.751 434.445C942.599 434.445 918.968 410.815 918.968 381.662C918.968 352.51 942.599 328.879 971.751 328.879Z" stroke="white" stroke-width="13.5341"/>
<path d="M806.635 280.157C849.24 280.157 883.779 314.696 883.779 357.302C883.779 399.907 849.24 434.446 806.635 434.446C764.029 434.446 729.49 399.907 729.49 357.302C729.49 314.696 764.029 280.157 806.635 280.157Z" stroke="white" stroke-width="13.5341"/>
<path d="M900.02 364.068V450.687" stroke="white" stroke-width="8.12048" stroke-linecap="round"/>
<path d="M1040.78 391.136V450.686" stroke="white" stroke-width="8.12048" stroke-linecap="round"/>
<path d="M1146.34 412.791V450.687" stroke="white" stroke-width="8.12048" stroke-linecap="round"/>
<path d="M1219.43 426.325V450.687" stroke="white" stroke-width="8.12048" stroke-linecap="round"/>
<path d="M1150.32 498.501H1148.62C1133.88 498.501 1132.46 491.965 1132.46 489.204V488.757H1143.87C1143.99 489.285 1144.6 490.706 1149.59 490.706C1154.14 490.706 1155.48 489.285 1155.48 487.661V487.458C1155.48 485.752 1154.14 484.534 1149.59 484.534C1144.68 484.534 1143.95 485.915 1143.83 486.402H1132.95V467.847H1164.29V475.439H1143.75V480.433C1144.19 479.987 1146.79 478.078 1153 478.078H1153.49C1164.17 478.078 1166.36 483.235 1166.36 487.498V487.985C1166.36 492.168 1164.13 498.501 1150.32 498.501Z" fill="white"/>
<path d="M1020.38 480.068H1012.95V472.922C1019.41 472.922 1021.6 471.582 1022.98 467.847H1031.26V498.055H1020.38V480.068ZM1055.34 498.501H1053.63C1038.89 498.501 1037.47 491.965 1037.47 489.204V488.757H1048.88C1049 489.285 1049.61 490.706 1054.61 490.706C1059.15 490.706 1060.49 489.285 1060.49 487.661V487.458C1060.49 485.752 1059.15 484.534 1054.61 484.534C1049.69 484.534 1048.96 485.915 1048.84 486.402H1037.96V467.847H1069.31V475.439H1048.76V480.433C1049.21 479.987 1051.81 478.078 1058.02 478.078H1058.5C1069.18 478.078 1071.38 483.235 1071.38 487.498V487.985C1071.38 492.168 1069.14 498.501 1055.34 498.501Z" fill="white"/>
<path d="M881.419 498.501H879.348C864.366 498.501 862.579 491.233 862.579 487.944V487.376H873.745C873.867 488.31 874.313 490.705 880.566 490.705C886.738 490.705 887.428 489.081 887.428 487.904V487.823C887.428 486.726 886.9 485.833 883.977 485.833H875.085V478.971H883.936C886.535 478.971 887.022 478.037 887.022 477.185V477.144C887.022 476.048 886.616 474.749 880.322 474.749C874.151 474.749 874.029 476.819 873.907 477.469H862.985V476.982C862.985 474.099 864.406 467.4 878.901 467.4H881.297C895.792 467.4 897.822 471.703 897.822 475.073V475.358C897.822 478.565 895.345 480.149 892.869 480.798C895.792 481.448 898.878 483.397 898.878 487.782V488.026C898.878 492.614 896.441 498.501 881.419 498.501ZM921.794 467.318H923.58C939.496 467.318 942.298 476.454 942.298 482.26V483.478C942.298 489.162 939.496 498.582 923.58 498.582H921.794C905.959 498.582 903.035 489.162 903.035 483.478V482.26C903.035 476.413 905.959 467.318 921.794 467.318ZM930.848 482.991V482.544C930.848 480.068 929.792 475.52 922.646 475.52C915.46 475.52 914.485 480.068 914.485 482.544V482.991C914.485 485.589 915.663 490.218 922.687 490.218C929.711 490.218 930.848 485.589 930.848 482.991Z" fill="white"/>
<path d="M1223.96 467.318H1225.75C1241.67 467.318 1244.47 476.454 1244.47 482.26V483.478C1244.47 489.162 1241.67 498.582 1225.75 498.582H1223.96C1208.13 498.582 1205.2 489.162 1205.2 483.478V482.26C1205.2 476.413 1208.13 467.318 1223.96 467.318ZM1233.02 482.991V482.544C1233.02 480.068 1231.96 475.52 1224.82 475.52C1217.63 475.52 1216.65 480.068 1216.65 482.544V482.991C1216.65 485.589 1217.83 490.218 1224.86 490.218C1231.88 490.218 1233.02 485.589 1233.02 482.991Z" fill="white"/>
<path d="M144.978 143.461L131.682 129.083V143.461H120.032V111.239H131.682V123.712L144.935 111.239H158.664L142.986 125.791L159.747 143.461H144.978ZM174.463 137.918C178.404 137.918 179.963 135.492 179.963 133.587V132.417C179.14 132.591 177.451 132.894 175.589 133.197C171.994 133.76 171.128 134.366 171.128 135.752V135.839C171.128 137.095 172.211 137.918 174.463 137.918ZM180.266 140.43C179.487 141.339 176.802 143.981 170.868 143.981H170.132C163.376 143.981 160.128 140.69 160.128 136.185V135.969C160.128 131.465 162.899 129.169 171.431 128.606L178.274 128.216C179.53 128.087 179.963 127.697 179.963 126.831V126.787C179.963 125.748 179.444 124.838 175.936 124.838H175.762C171.994 124.838 171.691 126.484 171.691 127.09H160.734V127.047C160.734 123.799 162.077 118.688 175.026 118.688H176.499C189.708 118.688 190.877 123.323 190.877 127.09V134.54C190.877 135.406 191.137 135.796 192.047 135.796H193.389V143.461H184.381C181.955 143.461 180.7 141.772 180.266 140.43ZM216.556 143.461L208.803 132.894V143.461H197.673V119.295H208.803V128.346L215.863 119.295H228.076L219.068 130.122L229.159 143.461H216.556ZM266.695 130.035L256.474 143.461H245.127V119.295H256.257V132.851L266.478 119.295H277.826V143.461H266.695V130.035ZM316.171 136.445V136.705C316.171 141.512 311.364 144.111 300.45 144.111H299.671C287.587 144.111 282.953 140.3 282.953 135.146V134.799H294.69C294.82 137.355 297.722 137.961 300.104 137.961C302.832 137.961 304.564 137.311 304.564 135.579V135.536C304.564 134.02 303.438 133.63 301.056 133.63H295.599V128.39H301.056C302.873 128.39 303.785 127.783 303.785 126.571V126.527C303.785 125.358 302.656 124.708 299.714 124.708C296.985 124.708 294.95 125.445 294.777 127.004H283.17V126.874C283.17 121.33 288.843 118.645 299.411 118.645H300.104C310.281 118.645 315.392 120.854 315.392 125.228V125.401C315.392 128.866 312.014 130.295 310.065 130.772C312.49 131.335 316.171 132.591 316.171 136.445ZM331.562 128.52V143.461H321.298V119.295H337.626L343.256 130.945L348.886 119.295H363.308V143.461H352.437V128.52L345.248 143.461H338.795L331.562 128.52ZM385.323 124.795C381.728 124.795 380.385 126.094 379.866 128.476H390.65C390.65 126.571 389.61 124.795 385.323 124.795ZM390.693 135.579H402.387C402.213 138.437 400.221 144.068 386.535 144.068H384.63C371.031 144.068 368.259 137.095 368.259 131.681V131.075C368.259 125.531 371.117 118.688 384.153 118.688H386.102C399.961 118.688 402.473 125.488 402.473 132.417V133.327H379.779C380.256 135.926 381.901 137.441 385.929 137.441C389.827 137.441 390.433 135.969 390.693 135.579ZM418.668 143.461H407.538V119.295H418.668V127.653H428.759V119.295H439.89V143.461H428.759V134.799H418.668V143.461ZM467.762 130.035L457.541 143.461H446.194V119.295H457.324V132.851L467.545 119.295H478.892V143.461H467.762V130.035ZM505.284 143.461V126.441H498.008C498.008 131.984 497.791 135.882 496.969 138.091C496.059 140.516 494.5 143.461 487.744 143.461H483.586V136.359H484.106C485.621 136.359 486.704 135.839 487.181 133.89C487.657 131.811 487.7 129.516 487.7 119.295H516.414V143.461H505.284ZM535.782 137.918C539.723 137.918 541.282 135.492 541.282 133.587V132.417C540.459 132.591 538.77 132.894 536.908 133.197C533.313 133.76 532.447 134.366 532.447 135.752V135.839C532.447 137.095 533.53 137.918 535.782 137.918ZM541.585 140.43C540.806 141.339 538.12 143.981 532.187 143.981H531.451C524.695 143.981 521.446 140.69 521.446 136.185V135.969C521.446 131.465 524.218 129.169 532.75 128.606L539.593 128.216C540.849 128.087 541.282 127.697 541.282 126.831V126.787C541.282 125.748 540.762 124.838 537.254 124.838H537.081C533.313 124.838 533.01 126.484 533.01 127.09H522.053V127.047C522.053 123.799 523.395 118.688 536.345 118.688H537.817C551.027 118.688 552.196 123.323 552.196 127.09V134.54C552.196 135.406 552.456 135.796 553.365 135.796H554.708V143.461H545.699C543.274 143.461 542.018 141.772 541.585 140.43ZM591.215 133.414V133.457C591.215 137.095 589.656 144.111 575.71 144.111H573.588C559.859 144.111 557.737 136.445 557.737 131.465V130.858C557.737 125.964 560.032 118.645 573.545 118.645H575.234C589.872 118.645 591.215 125.575 591.215 128.866V128.909H579.608C579.478 128.087 578.785 125.791 574.757 125.791H574.411C570.47 125.791 569.344 128.476 569.344 131.118V131.162C569.344 133.89 570.556 136.835 574.454 136.835H574.801C578.872 136.835 579.478 134.193 579.608 133.414H591.215ZM596.296 143.461V119.295H607.426V125.488H616.911C625.139 125.488 628.344 129.299 628.344 134.107V134.626C628.344 139.953 625.139 143.461 616.911 143.461H596.296ZM607.426 136.748H613.792C615.308 136.748 616.781 136.315 616.781 134.453V134.323C616.781 132.591 615.308 132.158 613.792 132.158H607.426V136.748ZM665.09 119.295H676.22V143.461H665.09V135.406C663.227 135.709 660.845 135.882 658.117 135.882C647.896 135.882 644.604 132.807 644.604 124.665V119.295H655.735V123.842C655.735 127.653 657.251 128.476 661.278 128.476C662.664 128.476 664.093 128.346 665.09 128.173V119.295ZM704.1 130.035L693.879 143.461H682.532V119.295H693.663V132.851L703.884 119.295H715.231V143.461H704.1V130.035ZM753.792 133.414V133.457C753.792 137.095 752.233 144.111 738.288 144.111H736.165C722.436 144.111 720.314 136.445 720.314 131.465V130.858C720.314 125.964 722.61 118.645 736.122 118.645H737.811C752.45 118.645 753.792 125.575 753.792 128.866V128.909H742.185C742.055 128.087 741.363 125.791 737.335 125.791H736.988C733.047 125.791 731.921 128.476 731.921 131.118V131.162C731.921 133.89 733.134 136.835 737.032 136.835H737.378C741.449 136.835 742.055 134.193 742.185 133.414H753.792ZM778.714 143.461V126.441H771.438C771.438 131.984 771.222 135.882 770.399 138.091C769.489 140.516 767.93 143.461 761.174 143.461H757.016V136.359H757.536C759.052 136.359 760.134 135.839 760.611 133.89C761.087 131.811 761.13 129.516 761.13 119.295H789.844V143.461H778.714ZM811.986 124.795C808.392 124.795 807.049 126.094 806.529 128.476H817.313C817.313 126.571 816.274 124.795 811.986 124.795ZM817.357 135.579H829.05C828.877 138.437 826.885 144.068 813.199 144.068H811.293C797.694 144.068 794.923 137.095 794.923 131.681V131.075C794.923 125.531 797.781 118.688 810.817 118.688H812.766C826.625 118.688 829.137 125.488 829.137 132.417V133.327H806.443C806.919 135.926 808.565 137.441 812.593 137.441C816.49 137.441 817.097 135.969 817.357 135.579ZM845.332 143.461H834.201V119.295H845.332V127.653H855.423V119.295H866.553V143.461H855.423V134.799H845.332V143.461ZM883.988 143.461H872.857V119.295H883.988V127.653H894.079V119.295H905.209V143.461H894.079V134.799H883.988V143.461ZM928.231 144.111H926.802C911.947 144.111 910.258 136.099 910.258 131.768V131.162C910.258 126.917 911.99 118.645 926.758 118.645H928.274C943.606 118.645 944.818 126.917 944.818 131.118V131.811C944.818 136.099 943.649 144.111 928.231 144.111ZM927.365 136.835H927.711C932.042 136.835 933.212 133.5 933.212 131.291C933.212 128.866 932.042 125.791 927.711 125.791H927.365C922.904 125.791 921.865 128.866 921.865 131.291C921.865 133.544 922.861 136.835 927.365 136.835ZM982.097 133.414V133.457C982.097 137.095 980.538 144.111 966.592 144.111H964.47C950.741 144.111 948.619 136.445 948.619 131.465V130.858C948.619 125.964 950.914 118.645 964.427 118.645H966.116C980.754 118.645 982.097 125.575 982.097 128.866V128.909H970.49C970.36 128.087 969.667 125.791 965.639 125.791H965.293C961.352 125.791 960.226 128.476 960.226 131.118V131.162C960.226 133.89 961.438 136.835 965.336 136.835H965.683C969.754 136.835 970.36 134.193 970.49 133.414H982.097ZM993.977 143.461V126.441H984.969V119.295H1014.16V126.441H1005.11V143.461H993.977ZM1018.27 143.461V119.295H1029.4V125.488H1038.88C1047.11 125.488 1050.31 129.299 1050.31 134.107V134.626C1050.31 139.953 1047.11 143.461 1038.88 143.461H1018.27ZM1029.4 136.748H1035.76C1037.28 136.748 1038.75 136.315 1038.75 134.453V134.323C1038.75 132.591 1037.28 132.158 1035.76 132.158H1029.4V136.748ZM1079.17 143.461H1068.04V119.295H1079.17V127.653H1089.27V119.295H1100.4V143.461H1089.27V134.799H1079.17V143.461ZM1119.74 137.918C1123.68 137.918 1125.24 135.492 1125.24 133.587V132.417C1124.42 132.591 1122.73 132.894 1120.87 133.197C1117.27 133.76 1116.4 134.366 1116.4 135.752V135.839C1116.4 137.095 1117.49 137.918 1119.74 137.918ZM1125.54 140.43C1124.76 141.339 1122.08 143.981 1116.14 143.981H1115.41C1108.65 143.981 1105.4 140.69 1105.4 136.185V135.969C1105.4 131.465 1108.18 129.169 1116.71 128.606L1123.55 128.216C1124.81 128.087 1125.24 127.697 1125.24 126.831V126.787C1125.24 125.748 1124.72 124.838 1121.21 124.838H1121.04C1117.27 124.838 1116.97 126.484 1116.97 127.09H1106.01V127.047C1106.01 123.799 1107.35 118.688 1120.3 118.688H1121.77C1134.98 118.688 1136.15 123.323 1136.15 127.09V134.54C1136.15 135.406 1136.41 135.796 1137.32 135.796H1138.67V143.461H1129.66C1127.23 143.461 1125.98 141.772 1125.54 140.43ZM1175.17 133.414V133.457C1175.17 137.095 1173.61 144.111 1159.66 144.111H1157.54C1143.81 144.111 1141.69 136.445 1141.69 131.465V130.858C1141.69 125.964 1143.99 118.645 1157.5 118.645H1159.19C1173.83 118.645 1175.17 125.575 1175.17 128.866V128.909H1163.56C1163.43 128.087 1162.74 125.791 1158.71 125.791H1158.37C1154.42 125.791 1153.3 128.476 1153.3 131.118V131.162C1153.3 133.89 1154.51 136.835 1158.41 136.835H1158.76C1162.83 136.835 1163.43 134.193 1163.56 133.414H1175.17ZM1196.06 124.795C1192.46 124.795 1191.12 126.094 1190.6 128.476H1201.39C1201.39 126.571 1200.35 124.795 1196.06 124.795ZM1201.43 135.579H1213.12C1212.95 138.437 1210.96 144.068 1197.27 144.068H1195.37C1181.77 144.068 1178.99 137.095 1178.99 131.681V131.075C1178.99 125.531 1181.85 118.688 1194.89 118.688H1196.84C1210.7 118.688 1213.21 125.488 1213.21 132.417V133.327H1190.51C1190.99 135.926 1192.64 137.441 1196.66 137.441C1200.56 137.441 1201.17 135.969 1201.43 135.579ZM1237.9 143.461V126.441H1230.63C1230.63 131.984 1230.41 135.882 1229.59 138.091C1228.68 140.516 1227.12 143.461 1220.36 143.461H1216.2V136.359H1216.72C1218.24 136.359 1219.32 135.839 1219.8 133.89C1220.28 131.811 1220.32 129.516 1220.32 119.295H1249.03V143.461H1237.9ZM1271.17 124.795C1267.58 124.795 1266.24 126.094 1265.72 128.476H1276.5C1276.5 126.571 1275.46 124.795 1271.17 124.795ZM1276.54 135.579H1288.24C1288.06 138.437 1286.07 144.068 1272.39 144.068H1270.48C1256.88 144.068 1254.11 137.095 1254.11 131.681V131.075C1254.11 125.531 1256.97 118.688 1270 118.688H1271.95C1285.81 118.688 1288.32 125.488 1288.32 132.417V133.327H1265.63C1266.11 135.926 1267.75 137.441 1271.78 137.441C1275.68 137.441 1276.28 135.969 1276.54 135.579ZM1304.52 143.461H1293.39V119.295H1304.52V127.653H1314.61V119.295H1325.74V143.461H1314.61V134.799H1304.52V143.461ZM1353.61 130.035L1343.39 143.461H1332.05V119.295H1343.18V132.851L1353.4 119.295H1364.74V143.461H1353.61V130.035ZM1392.61 136.185H1387.89L1382.17 143.461H1369.7L1376.63 134.713C1372.99 133.717 1370.86 131.291 1370.86 127.697V127.394C1370.86 122.716 1374.03 119.295 1381.43 119.295H1403.74V143.461H1392.61V136.185ZM1392.61 125.575H1385.29C1383.73 125.575 1382.34 126.138 1382.34 127.827V127.913C1382.34 129.602 1383.73 130.209 1385.29 130.209H1392.61V125.575ZM151.778 187.55V187.593C151.778 191.231 150.218 198.248 136.273 198.248H134.151C120.422 198.248 118.3 190.582 118.3 185.601V184.995C118.3 180.101 120.595 172.782 134.107 172.782H135.796C150.435 172.782 151.778 179.711 151.778 183.003V183.046H140.171C140.041 182.223 139.348 179.928 135.32 179.928H134.974C131.032 179.928 129.906 182.613 129.906 185.255V185.298C129.906 188.027 131.119 190.972 135.017 190.972H135.363C139.434 190.972 140.041 188.33 140.171 187.55H151.778ZM206.568 197.598H169.192V191.968C169.192 187.117 170.794 182.526 183.44 179.408L188.118 178.282C193.012 177.243 193.791 176.463 193.791 175.25V175.164C193.791 173.821 192.925 172.608 187.945 172.608C182.141 172.608 181.838 175.337 181.708 176.723H169.755V176.42C169.755 172.132 171.574 164.943 186.689 164.943H189.071C202.367 164.943 206.005 169.317 206.005 175.207V175.553C206.005 181.53 201.5 183.912 190.976 185.428C189.287 185.645 187.512 185.948 186.082 186.251C179.846 187.29 178.893 188.286 178.893 188.979H206.568V197.598ZM231.112 164.813H233.018C249.995 164.813 252.983 174.557 252.983 180.751V182.05C252.983 188.113 249.995 198.161 233.018 198.161H231.112C214.221 198.161 211.103 188.113 211.103 182.05V180.751C211.103 174.514 214.221 164.813 231.112 164.813ZM240.77 181.53V181.054C240.77 178.412 239.644 173.561 232.022 173.561C224.356 173.561 223.316 178.412 223.316 181.054V181.53C223.316 184.302 224.572 189.239 232.065 189.239C239.557 189.239 240.77 184.302 240.77 181.53ZM265.167 178.412H257.241V170.789C264.127 170.789 266.466 169.36 267.938 165.376H276.773V197.598H265.167V178.412ZM302.927 164.813H304.832C321.81 164.813 324.798 174.557 324.798 180.751V182.05C324.798 188.113 321.81 198.161 304.832 198.161H302.927C286.036 198.161 282.918 188.113 282.918 182.05V180.751C282.918 174.514 286.036 164.813 302.927 164.813ZM312.585 181.53V181.054C312.585 178.412 311.459 173.561 303.836 173.561C296.171 173.561 295.131 178.412 295.131 181.054V181.53C295.131 184.302 296.387 189.239 303.88 189.239C311.372 189.239 312.585 184.302 312.585 181.53ZM341.472 202.708V190.452H344.59C345.976 187.377 346.366 180.274 346.366 173.431H375.6V190.452H379.931V202.708H369.796V197.598H351.606V202.708H341.472ZM354.681 190.452H364.469V180.447H356.197C356.197 183.782 355.461 187.94 354.681 190.452ZM400.654 198.248H399.225C384.37 198.248 382.681 190.235 382.681 185.904V185.298C382.681 181.054 384.413 172.782 399.182 172.782H400.697C416.029 172.782 417.242 181.054 417.242 185.255V185.948C417.242 190.235 416.072 198.248 400.654 198.248ZM399.788 190.972H400.134C404.465 190.972 405.635 187.637 405.635 185.428C405.635 183.003 404.465 179.928 400.134 179.928H399.788C395.327 179.928 394.288 183.003 394.288 185.428C394.288 187.68 395.284 190.972 399.788 190.972ZM472.006 197.598H434.63V191.968C434.63 187.117 436.233 182.526 448.879 179.408L453.556 178.282C458.45 177.243 459.23 176.463 459.23 175.25V175.164C459.23 173.821 458.364 172.608 453.383 172.608C447.58 172.608 447.277 175.337 447.147 176.723H435.193V176.42C435.193 172.132 437.012 164.943 452.127 164.943H454.509C467.805 164.943 471.443 169.317 471.443 175.207V175.553C471.443 181.53 466.939 183.912 456.415 185.428C454.726 185.645 452.95 185.948 451.521 186.251C445.284 187.29 444.332 188.286 444.332 188.979H472.006V197.598ZM496.552 164.813H498.457C515.434 164.813 518.423 174.557 518.423 180.751V182.05C518.423 188.113 515.434 198.161 498.457 198.161H496.552C479.661 198.161 476.543 188.113 476.543 182.05V180.751C476.543 174.514 479.661 164.813 496.552 164.813ZM506.21 181.53V181.054C506.21 178.412 505.084 173.561 497.461 173.561C489.795 173.561 488.756 178.412 488.756 181.054V181.53C488.756 184.302 490.012 189.239 497.504 189.239C504.997 189.239 506.21 184.302 506.21 181.53ZM560.571 197.598H523.195V191.968C523.195 187.117 524.797 182.526 537.444 179.408L542.121 178.282C547.015 177.243 547.795 176.463 547.795 175.25V175.164C547.795 173.821 546.928 172.608 541.948 172.608C536.144 172.608 535.841 175.337 535.711 176.723H523.758V176.42C523.758 172.132 525.577 164.943 540.692 164.943H543.074C556.37 164.943 560.008 169.317 560.008 175.207V175.553C560.008 181.53 555.504 183.912 544.98 185.428C543.29 185.645 541.515 185.948 540.086 186.251C533.849 187.29 532.896 188.286 532.896 188.979H560.571V197.598ZM572.603 178.412H564.677V170.789C571.563 170.789 573.902 169.36 575.374 165.376H584.21V197.598H572.603V178.412ZM612.174 182.743C612.174 190.885 614.902 197.858 618.021 203.271H612.001C607.973 199.027 603.295 192.054 603.295 182.743C603.295 173.605 607.929 166.675 612.001 162.604H618.021C614.686 167.801 612.174 174.644 612.174 182.743ZM632.97 183.696H632.147C622.273 183.696 620.454 178.239 620.454 174.601V173.908C620.454 170.27 622.273 165.029 632.147 165.029H632.97C642.888 165.029 644.837 170.27 644.837 173.908V174.601C644.837 178.239 642.888 183.696 632.97 183.696ZM660.515 165.376H669.22L638.774 197.598H630.025L660.515 165.376ZM636.695 174.297V174.081C636.695 171.959 635.352 170.53 632.624 170.53C629.895 170.53 628.596 171.959 628.596 174.168V174.297C628.596 176.42 629.895 177.935 632.624 177.935C635.352 177.935 636.695 176.42 636.695 174.297ZM667.098 197.944H666.275C656.401 197.944 654.582 192.401 654.582 188.806V188.156C654.582 184.562 656.401 179.278 666.275 179.278H667.098C677.016 179.278 678.921 184.562 678.921 188.156V188.806C678.921 192.401 677.016 197.944 667.098 197.944ZM666.752 184.778C663.98 184.778 662.724 186.164 662.724 188.373V188.503C662.724 190.712 664.023 192.184 666.752 192.184C669.48 192.184 670.823 190.712 670.823 188.503V188.33C670.823 186.208 669.48 184.778 666.752 184.778ZM687.183 182.743C687.183 174.644 684.671 167.801 681.336 162.604H687.356C691.514 166.632 696.104 173.605 696.104 182.743C696.104 192.098 691.297 198.984 687.356 203.271H681.336C684.454 197.858 687.183 190.885 687.183 182.743Z" fill="white"/>
<g filter="url(#filter0_f_42_5139)">
<path d="M548.133 273.389H168.5C139.723 273.389 116.394 296.718 116.394 325.495C116.394 354.273 139.723 377.602 168.5 377.602H548.133C576.91 377.602 600.239 354.273 600.239 325.495C600.239 296.718 576.91 273.389 548.133 273.389Z" fill="#5BC1BA"/>
</g>
<path d="M548.133 273.389H168.5C139.723 273.389 116.394 296.718 116.394 325.495C116.394 354.273 139.723 377.602 168.5 377.602H548.133C576.91 377.602 600.239 354.273 600.239 325.495C600.239 296.718 576.91 273.389 548.133 273.389Z" fill="#5BC1BA"/>
<g filter="url(#filter1_f_42_5139)">
<path d="M548.133 407.378H168.5C139.723 407.378 116.394 430.707 116.394 459.484C116.394 488.262 139.723 511.591 168.5 511.591H548.133C576.91 511.591 600.239 488.262 600.239 459.484C600.239 430.707 576.91 407.378 548.133 407.378Z" fill="#D44006"/>
</g>
<path d="M548.133 407.378H168.5C139.723 407.378 116.394 430.707 116.394 459.484C116.394 488.262 139.723 511.591 168.5 511.591H548.133C576.91 511.591 600.239 488.262 600.239 459.484C600.239 430.707 576.91 407.378 548.133 407.378Z" fill="#D44006"/>
<path d="M201.686 338.354V302.104H231.894C242.272 302.104 245.439 306.051 245.439 310.582V310.923C245.439 315.796 241.151 317.891 238.423 318.28C242.174 318.816 247.436 320.96 247.436 327.197V327.684C247.436 333.677 243.782 338.354 231.942 338.354H201.686ZM228.24 310.582H214.841V315.844H228.24C231.017 315.844 231.894 314.772 231.894 313.262V313.165C231.894 311.605 230.968 310.582 228.24 310.582ZM229.214 323.689H214.841V329.487H229.214C232.722 329.487 233.307 327.928 233.307 326.563V326.368C233.307 324.956 232.722 323.689 229.214 323.689ZM253.108 338.354V311.167H265.63V318.134H276.299C285.557 318.134 289.162 322.422 289.162 327.83V328.415C289.162 334.408 285.557 338.354 276.299 338.354H253.108ZM265.63 330.802H272.791C274.496 330.802 276.153 330.315 276.153 328.22V328.074C276.153 326.125 274.496 325.638 272.791 325.638H265.63V330.802ZM304.364 311.167V338.354H291.842V311.167H304.364ZM336.534 324.907V324.663C336.534 322.13 335.17 318.768 330.395 318.768H330.2C325.377 318.768 323.964 322.13 323.964 324.614V324.907C323.964 327.538 325.377 330.705 330.2 330.705H330.395C335.17 330.705 336.534 327.44 336.534 324.907ZM311.491 347.563V311.167H324.012V314.48C325.328 313.165 328.592 310.631 334.975 310.631H335.365C346.279 310.631 349.641 317.403 349.641 324.225V325.053C349.641 331.338 346.181 338.89 334.878 338.89H334.439C328.154 338.89 325.133 336.308 324.012 335.334V347.563H311.491ZM374.213 339.085H372.605C355.894 339.085 353.993 330.071 353.993 325.199V324.517C353.993 319.742 355.942 310.436 372.557 310.436H374.262C391.51 310.436 392.874 319.742 392.874 324.468V325.248C392.874 330.071 391.559 339.085 374.213 339.085ZM373.239 330.9H373.629C378.501 330.9 379.816 327.148 379.816 324.663C379.816 321.935 378.501 318.475 373.629 318.475H373.239C368.22 318.475 367.051 321.935 367.051 324.663C367.051 327.197 368.172 330.9 373.239 330.9ZM434.814 327.051V327.099C434.814 331.192 433.06 339.085 417.371 339.085H414.984C399.538 339.085 397.151 330.461 397.151 324.858V324.176C397.151 318.67 399.733 310.436 414.935 310.436H416.835C433.303 310.436 434.814 318.232 434.814 321.935V321.983H421.756C421.61 321.058 420.83 318.475 416.299 318.475H415.909C411.475 318.475 410.209 321.496 410.209 324.468V324.517C410.209 327.587 411.573 330.9 415.958 330.9H416.348C420.928 330.9 421.61 327.928 421.756 327.051H434.814ZM462.851 338.354V319.206H454.666C454.666 325.443 454.422 329.828 453.496 332.313C452.473 335.041 450.719 338.354 443.118 338.354H438.441V330.364H439.026C440.731 330.364 441.949 329.779 442.485 327.587C443.021 325.248 443.07 322.666 443.07 311.167H475.373V338.354H462.851ZM497.163 332.118C501.597 332.118 503.351 329.389 503.351 327.246V325.93C502.425 326.125 500.525 326.466 498.43 326.807C494.386 327.44 493.411 328.123 493.411 329.682V329.779C493.411 331.192 494.629 332.118 497.163 332.118ZM503.692 334.944C502.815 335.967 499.794 338.939 493.119 338.939H492.291C484.69 338.939 481.036 335.236 481.036 330.169V329.925C481.036 324.858 484.154 322.276 493.752 321.642L501.45 321.204C502.863 321.058 503.351 320.619 503.351 319.645V319.596C503.351 318.427 502.766 317.403 498.819 317.403H498.625C494.386 317.403 494.045 319.255 494.045 319.937H481.718V319.888C481.718 316.234 483.228 310.485 497.796 310.485H499.453C514.313 310.485 515.629 315.698 515.629 319.937V328.317C515.629 329.292 515.921 329.73 516.944 329.73H518.455V338.354H508.32C505.592 338.354 504.179 336.454 503.692 334.944Z" fill="white"/>
<path d="M190.217 474.279H188.025C169.218 474.279 165.32 463.316 165.32 456.202V454.741C165.32 447.578 169.12 436.859 188.025 436.859H190.217C209.219 436.859 212.678 445.678 212.678 451.769V452.158H199.085C198.939 451.281 198.159 446.701 189.145 446.701C180.716 446.701 179.06 451.622 179.06 455.082V455.666C179.06 459.174 180.814 464.29 189.194 464.29C198.159 464.29 198.939 459.662 199.085 458.882H212.678V459.272C212.678 464.924 209.317 474.279 190.217 474.279ZM231.205 473.694H218.683V446.506H231.205V455.91H242.558V446.506H255.079V473.694H242.558V463.949H231.205V473.694ZM286.436 458.59L274.938 473.694H262.172V446.506H274.694V461.757L286.193 446.506H298.958V473.694H286.436V458.59ZM342.097 465.801V466.093C342.097 471.501 336.689 474.425 324.41 474.425H323.533C309.94 474.425 304.726 470.137 304.726 464.339V463.949H317.93C318.076 466.824 321.341 467.506 324.021 467.506C327.09 467.506 329.039 466.775 329.039 464.826V464.778C329.039 463.072 327.772 462.634 325.092 462.634H318.953V456.738H325.092C327.139 456.738 328.162 456.056 328.162 454.692V454.643C328.162 453.328 326.895 452.597 323.582 452.597C320.513 452.597 318.223 453.425 318.028 455.179H304.97V455.033C304.97 448.796 311.353 445.776 323.241 445.776H324.021C335.47 445.776 341.22 448.261 341.22 453.182V453.376C341.22 457.274 337.419 458.882 335.227 459.418C337.955 460.051 342.097 461.464 342.097 465.801ZM372.129 458.59L360.63 473.694H347.865V446.506H360.387V461.757L371.885 446.506H384.651V473.694H372.129V458.59ZM414.342 473.694V454.546H406.157C406.157 460.782 405.913 465.167 404.987 467.652C403.964 470.381 402.21 473.694 394.609 473.694H389.932V465.703H390.517C392.222 465.703 393.44 465.119 393.976 462.926C394.512 460.587 394.561 458.005 394.561 446.506H426.864V473.694H414.342ZM448.654 467.457C453.088 467.457 454.842 464.729 454.842 462.585V461.27C453.916 461.464 452.016 461.805 449.921 462.147C445.877 462.78 444.902 463.462 444.902 465.021V465.119C444.902 466.532 446.12 467.457 448.654 467.457ZM455.183 470.283C454.306 471.306 451.285 474.279 444.61 474.279H443.781C436.181 474.279 432.526 470.576 432.526 465.508V465.265C432.526 460.198 435.645 457.615 445.243 456.982L452.941 456.543C454.354 456.397 454.842 455.959 454.842 454.984V454.936C454.842 453.766 454.257 452.743 450.31 452.743H450.115C445.877 452.743 445.536 454.595 445.536 455.277H433.209V455.228C433.209 451.574 434.719 445.824 449.287 445.824H450.944C465.804 445.824 467.12 451.038 467.12 455.277V463.657C467.12 464.631 467.412 465.07 468.435 465.07H469.946V473.694H459.811C457.083 473.694 455.67 471.794 455.183 470.283ZM511.014 462.39V462.439C511.014 466.532 509.26 474.425 493.571 474.425H491.183C475.738 474.425 473.351 465.801 473.351 460.198V459.516C473.351 454.01 475.933 445.776 491.135 445.776H493.035C509.503 445.776 511.014 453.571 511.014 457.274V457.323H497.956C497.81 456.397 497.03 453.815 492.499 453.815H492.109C487.675 453.815 486.409 456.836 486.409 459.808V459.857C486.409 462.926 487.773 466.239 492.158 466.239H492.548C497.128 466.239 497.81 463.267 497.956 462.39H511.014ZM516.73 473.694V446.506H529.252V453.474H539.923C549.18 453.474 552.785 457.761 552.785 463.17V463.754C552.785 469.747 549.18 473.694 539.923 473.694H516.73ZM529.252 466.142H536.415C538.12 466.142 539.776 465.655 539.776 463.56V463.413C539.776 461.464 538.12 460.977 536.415 460.977H529.252V466.142Z" fill="white"/>
</g>
<defs>
<filter id="filter0_f_42_5139" x="87.1601" y="244.155" width="542.313" height="162.68" filterUnits="userSpaceOnUse" color-interpolation-filters="sRGB">
<feFlood flood-opacity="0" result="BackgroundImageFix"/>
<feBlend mode="normal" in="SourceGraphic" in2="BackgroundImageFix" result="shape"/>
<feGaussianBlur stdDeviation="14.6169" result="effect1_foregroundBlur_42_5139"/>
</filter>
<filter id="filter1_f_42_5139" x="87.1601" y="378.144" width="542.313" height="162.68" filterUnits="userSpaceOnUse" color-interpolation-filters="sRGB">
<feFlood flood-opacity="0" result="BackgroundImageFix"/>
<feBlend mode="normal" in="SourceGraphic" in2="BackgroundImageFix" result="shape"/>
<feGaussianBlur stdDeviation="14.6169" result="effect1_foregroundBlur_42_5139"/>
</filter>
<clipPath id="clip0_42_5139">
<rect width="1540.18" height="674" fill="white"/>
</clipPath>
</defs>
</svg>
